<svg width="100" height="100" viewBox="0 0 100 100" fill="none" xmlns="http://www.w3.org/2000/svg">
<path d="M49.9998 22.2222C54.2069 22.2222 58.1956 23.1575 61.7692 24.8314L49.5526 37.1362C42.6511 37.3719 37.1285 43.041 37.1285 50C37.1285 57.1087 42.8913 62.8714 50 62.8714C56.8878 62.8714 62.512 57.4613 62.8548 50.6586L75.359 38.6466C76.9132 42.1127 77.7776 45.9554 77.7776 49.9999C77.7776 65.3412 65.3411 77.7777 49.9998 77.7777C34.6586 77.7777 22.222 65.3412 22.222 49.9999C22.222 34.6587 34.6586 22.2222 49.9998 22.2222Z" fill="url(#paint0_radial_2152_2062)"/>
<path d="M79.8938 17.8571C80.0082 17.6949 80.1474 17.5449 80.3094 17.4141L80.6466 17.1417C81.4169 16.5194 82.566 16.7231 83.527 16.9622C84.1121 17.1078 84.7287 17.0585 85.2832 16.8217C85.8377 16.5849 86.2998 16.1736 86.5992 15.6503C86.8987 15.1269 87.0191 14.5202 86.9423 13.9221C86.8655 13.3241 86.5956 12.7675 86.1736 12.3368C85.7516 11.9062 85.2006 11.625 84.6042 11.536C84.0079 11.4471 83.3988 11.5552 82.8695 11.8439C82.0002 12.3181 80.9399 12.8056 80.0373 12.3983L79.6422 12.22C78.5214 11.7142 78.0025 10.3612 78.8245 9.44674C79.3682 8.84193 80.0137 8.32932 80.737 7.93475C82.1175 7.1817 83.706 6.89977 85.2613 7.13179C86.8166 7.36381 88.2536 8.09709 89.3542 9.22026C90.4547 10.3434 91.1587 11.7951 91.359 13.3548C91.5593 14.9145 91.2452 16.4969 90.4642 17.8618C89.6833 19.2266 88.4782 20.2993 87.032 20.9169C85.9099 21.3961 84.6902 21.581 83.487 21.4623C84.623 22.7718 84.5685 24.7563 83.3237 26.0011L54.6622 54.6625C52.0873 57.2374 47.9126 57.2374 45.3377 54.6625C42.7628 52.0876 42.7628 47.9129 45.3377 45.338L73.9992 16.6766C75.3009 15.3748 77.4115 15.3748 78.7132 16.6766L79.8938 17.8571Z" fill="url(#paint1_linear_2152_2062)"/>
<path d="M67.6302 18.9284C60.134 14.675 51.3529 13.275 42.9057 14.9866C38.2716 15.9255 33.9095 17.7661 30.0488 20.3652L29.992 20.0803L27.4613 21.0956L27.6652 22.1175C26.8319 22.785 26.0275 23.4907 25.2547 24.2328L24.8387 22.1478L22.3079 23.1631L22.9958 26.611C22.5376 27.14 22.094 27.6836 21.6656 28.2415C21.3473 28.6559 21.0388 29.0764 20.7402 29.5028L19.6853 24.2153L17.0429 25.2754L18.5826 32.9933C17.8286 34.3862 17.1697 35.8247 16.6091 37.2988L14.4203 26.3276L11.9479 27.3195L14.1592 38.4043L16.5544 37.4434C14.8024 42.1104 14.0324 47.1295 14.3418 52.1831C14.8684 60.7857 18.4874 68.908 24.5314 75.0524C30.5754 81.1968 38.6369 84.9491 47.2298 85.6174C55.3044 86.2454 63.3365 84.1105 70.019 79.5891L78.1697 83.4904L78.8755 80.8565L72.4569 77.7842C73.2422 77.1496 73.9979 76.4838 74.7225 75.7891L79.6069 78.127L80.3126 75.4931L76.6825 73.7555C77.3174 73.0423 77.9228 72.3047 78.4974 71.5447L81.044 72.7636L81.7626 70.0817L80.0786 69.2756C80.58 68.4933 81.0508 67.6914 81.49 66.8716L82.494 67.3522L83.1897 64.7555L82.6511 64.4977C83.0272 63.6508 83.3708 62.788 83.6809 61.9111L83.9211 62.026L84.9066 57.6933L84.8911 57.6734C84.8914 57.6724 84.8916 57.6713 84.8918 57.6702C86.7423 49.2524 85.4872 40.4494 81.3579 32.8841L75.3592 38.6467C76.9133 42.1128 77.7778 45.9555 77.7778 50C77.7778 65.3413 65.3412 77.7778 50 77.7778C34.6587 77.7778 22.2222 65.3413 22.2222 50C22.2222 34.6588 34.6587 22.2223 50 22.2223C54.2071 22.2223 58.1957 23.1576 61.7694 24.8315L67.6302 18.9284Z" fill="url(#paint2_linear_2152_2062)"/>
<path d="M49.5527 37.1363C42.6511 37.372 37.1286 43.0412 37.1286 50.0001C37.1286 57.1088 42.8913 62.8716 50 62.8716C56.8878 62.8716 62.512 57.4614 62.8549 50.6587L55.6352 57.5943C53.803 58.9538 51.5412 59.6052 49.2666 59.4283C46.992 59.2514 44.858 58.2581 43.2581 56.6316C41.6583 55.0052 40.7003 52.8551 40.5609 50.5779C40.4215 48.3007 41.11 46.0499 42.4995 44.2404L49.5527 37.1363Z" fill="url(#paint3_linear_2152_2062)"/>
<path d="M9.32525 28.3717L11.5366 39.4565L9.06438 40.4483L6.853 29.3635L9.32525 28.3717Z" fill="url(#paint4_linear_2152_2062)"/>
<path d="M4.23039 30.4157L4.33711 30.9507L4.13745 30.453L4.23039 30.4157Z" fill="url(#paint5_linear_2152_2062)"/>
<path d="M76.7426 88.8166L66.5471 83.9365L67.2429 81.3399L77.4384 86.22L76.7426 88.8166Z" fill="url(#paint6_linear_2152_2062)"/>
<path d="M65.12 89.2627L75.3155 94.1427L76.0112 91.5461L65.8158 86.6661L65.12 89.2627Z" fill="url(#paint7_linear_2152_2062)"/>
<defs>
<radialGradient id="paint0_radial_2152_2062" cx="0" cy="0" r="1" gradientUnits="userSpaceOnUse" gradientTransform="translate(49.9998 49.9999) rotate(90) scale(27.7778)">
<stop offset="0.447917" stop-color="#8DD0FD"/>
<stop offset="0.71875" stop-color="#D1EDFF"/>
</radialGradient>
<linearGradient id="paint1_linear_2152_2062" x1="4.13745" y1="7.05273" x2="89.7191" y2="94.7612" gradientUnits="userSpaceOnUse">
<stop offset="0.375" stop-color="#0098FF"/>
<stop offset="0.598958" stop-color="#1EA1FB"/>
</linearGradient>
<linearGradient id="paint2_linear_2152_2062" x1="4.13745" y1="7.05273" x2="89.7191" y2="94.7612" gradientUnits="userSpaceOnUse">
<stop offset="0.375" stop-color="#0098FF"/>
<stop offset="0.598958" stop-color="#1EA1FB"/>
</linearGradient>
<linearGradient id="paint3_linear_2152_2062" x1="4.13745" y1="7.05273" x2="89.7191" y2="94.7612" gradientUnits="userSpaceOnUse">
<stop offset="0.375" stop-color="#0098FF"/>
<stop offset="0.598958" stop-color="#1EA1FB"/>
</linearGradient>
<linearGradient id="paint4_linear_2152_2062" x1="4.13745" y1="7.05273" x2="89.7191" y2="94.7612" gradientUnits="userSpaceOnUse">
<stop offset="0.375" stop-color="#0098FF"/>
<stop offset="0.598958" stop-color="#1EA1FB"/>
</linearGradient>
<linearGradient id="paint5_linear_2152_2062" x1="4.13745" y1="7.05273" x2="89.7191" y2="94.7612" gradientUnits="userSpaceOnUse">
<stop offset="0.375" stop-color="#0098FF"/>
<stop offset="0.598958" stop-color="#1EA1FB"/>
</linearGradient>
<linearGradient id="paint6_linear_2152_2062" x1="4.13745" y1="7.05273" x2="89.7191" y2="94.7612" gradientUnits="userSpaceOnUse">
<stop offset="0.375" stop-color="#0098FF"/>
<stop offset="0.598958" stop-color="#1EA1FB"/>
</linearGradient>
<linearGradient id="paint7_linear_2152_2062" x1="4.13745" y1="7.05273" x2="89.7191" y2="94.7612" gradientUnits="userSpaceOnUse">
<stop offset="0.375" stop-color="#0098FF"/>
<stop offset="0.598958" stop-color="#1EA1FB"/>
</linearGradient>
</defs>
</svg>
