<svg width="131" height="48" viewBox="0 0 131 48" fill="none" xmlns="http://www.w3.org/2000/svg">
<path
  fill-rule="evenodd" 
  clip-rule="evenodd"
  d="M7.62615 0.00488281L68.9398 6.44921L123.881 3.56985L124.337 12.2717L130.5 12.9194L126.829 47.8501L68.0176 41.6688L2.3382 45.111L0.5 10.036L6.60547 9.71602L7.62615 0.00488281ZM62.4667 37.6214C60.4612 37.6214 58.8745 37.2688 57.7065 36.5636C56.5384 35.8584 55.701 34.8446 55.1941 33.5224C54.6872 32.2001 54.4338 30.6244 54.4338 28.7952V18.845C54.4338 16.9938 54.6872 15.4181 55.1941 14.1179C55.701 12.8176 56.5384 11.8259 57.7065 11.1428C58.8745 10.4375 60.4612 10.0849 62.4667 10.0849C64.4942 10.0849 66.0919 10.4375 67.2599 11.1428C68.45 11.8259 69.2985 12.8176 69.8053 14.1179C70.3122 15.4181 70.5656 16.9938 70.5656 18.845V28.7952C70.5656 30.6244 70.3122 32.2001 69.8053 33.5224C69.2985 34.8446 68.45 35.8584 67.2599 36.5636C66.0919 37.2688 64.4942 37.6214 62.4667 37.6214ZM62.4667 33.4232C63.0837 33.4232 63.5355 33.2689 63.822 32.9604C64.1085 32.6519 64.2958 32.2552 64.384 31.7703C64.4721 31.2855 64.5162 30.7897 64.5162 30.2828V17.3905C64.5162 16.8616 64.4721 16.3658 64.384 15.903C64.2958 15.4181 64.1085 15.0214 63.822 14.7129C63.5355 14.4044 63.0837 14.2501 62.4667 14.2501C61.8937 14.2501 61.4639 14.4044 61.1774 14.7129C60.891 15.0214 60.7036 15.4181 60.6155 15.903C60.5273 16.3658 60.4832 16.8616 60.4832 17.3905V30.2828C60.4832 30.7897 60.5163 31.2855 60.5824 31.7703C60.6706 32.2552 60.8469 32.6519 61.1113 32.9604C61.3978 33.2689 61.8496 33.4232 62.4667 33.4232ZM17.8485 10.4486V37.2248H24.6913C27.0053 37.2248 28.8014 36.9272 30.0796 36.3322C31.3798 35.7372 32.2944 34.8116 32.8233 33.5554C33.3522 32.2772 33.6167 30.6354 33.6167 28.6299V18.9112C33.6167 16.9277 33.3522 15.319 32.8233 14.0848C32.2944 12.8287 31.3798 11.9141 30.0796 11.3411C28.7793 10.7461 26.9612 10.4486 24.6252 10.4486H17.8485ZM24.6913 33.1257H23.7657V14.5807H24.6582C25.5397 14.5807 26.1788 14.6909 26.5755 14.9113C26.9722 15.1316 27.2256 15.4842 27.3358 15.9691C27.4681 16.4539 27.5342 17.093 27.5342 17.8864V29.5555C27.5342 30.3489 27.4791 31.01 27.3689 31.5389C27.2807 32.0679 27.0383 32.4645 26.6416 32.729C26.2449 32.9935 25.5948 33.1257 24.6913 33.1257ZM36.2261 10.4486V37.2248H42.1433V25.225H43.8292L46.7713 37.2248H52.8868L49.2175 24.2664C50.099 23.8477 50.7712 23.3298 51.234 22.7127C51.7188 22.0736 52.0494 21.3243 52.2257 20.4648C52.402 19.6054 52.4902 18.6247 52.4902 17.5228C52.4902 15.6495 52.1155 14.206 51.3662 13.1923C50.639 12.1565 49.6142 11.4403 48.2919 11.0436C46.9696 10.6469 45.4049 10.4486 43.5978 10.4486H36.2261ZM43.7962 21.8202H42.1433V14.4154H44.0606C45.1846 14.4154 45.9559 14.735 46.3746 15.3741C46.7933 16.0132 47.0027 16.9057 47.0027 18.0517C47.0027 18.845 46.9035 19.5282 46.7052 20.1012C46.5289 20.6522 46.2093 21.0819 45.7465 21.3904C45.2837 21.6769 44.6336 21.8202 43.7962 21.8202ZM76.0841 36.7289C77.208 37.3239 78.6075 37.6214 80.2823 37.6214C81.7148 37.6214 82.949 37.3239 83.9847 36.7289C85.0426 36.1339 85.858 35.3295 86.431 34.3157C87.0039 33.2799 87.2904 32.134 87.2904 30.8778C87.2904 29.0266 86.8827 27.4729 86.0673 26.2168C85.274 24.9606 84.2933 23.8367 83.1253 22.8449L80.9104 20.8946C80.1391 20.2114 79.511 19.5613 79.0262 18.9442C78.5634 18.3051 78.332 17.4897 78.332 16.498C78.332 16.0352 78.4532 15.5724 78.6956 15.1096C78.9601 14.6468 79.3678 14.4154 79.9187 14.4154C80.4256 14.4154 80.8002 14.5807 81.0427 14.9113C81.2851 15.2198 81.4393 15.6716 81.5055 16.2666C81.5936 16.8396 81.6487 17.5228 81.6707 18.3161L86.7615 17.688C86.7395 16.8947 86.6403 16.0683 86.464 15.2088C86.3097 14.3272 86.0012 13.5008 85.5384 12.7295C85.0977 11.9361 84.4365 11.297 83.555 10.8122C82.6955 10.3273 81.5495 10.0849 80.1171 10.0849C77.8031 10.0849 75.9739 10.691 74.6296 11.9031C73.2853 13.0931 72.6131 14.8231 72.6131 17.093C72.6131 18.7018 72.9547 20.0571 73.6379 21.159C74.3431 22.2389 75.2026 23.2086 76.2163 24.0681L78.5303 26.0845C79.4339 26.8559 80.1501 27.6272 80.679 28.3985C81.2079 29.1478 81.4724 30.0734 81.4724 31.1753C81.4724 31.6381 81.3732 32.0789 81.1749 32.4976C80.9986 32.9163 80.6019 33.1257 79.9848 33.1257C79.5 33.1257 79.0813 32.9714 78.7287 32.6629C78.3981 32.3543 78.1336 31.8475 77.9353 31.1423C77.759 30.437 77.6598 29.5114 77.6378 28.3655L72.5801 29.1258C72.6462 31.1092 72.9657 32.729 73.5387 33.9852C74.1117 35.2193 74.9602 36.1339 76.0841 36.7289ZM95.7546 37.6214C94.0797 37.6214 92.6803 37.3239 91.5563 36.7289C90.4324 36.1339 89.5839 35.2193 89.0109 33.9852C88.438 32.729 88.1184 31.1092 88.0523 29.1258L93.11 28.3655C93.1321 29.5114 93.2312 30.437 93.4075 31.1423C93.6059 31.8475 93.8703 32.3543 94.2009 32.6629C94.5535 32.9714 94.9722 33.1257 95.4571 33.1257C96.0741 33.1257 96.4708 32.9163 96.6471 32.4976C96.8455 32.0789 96.9446 31.6381 96.9446 31.1753C96.9446 30.0734 96.6802 29.1478 96.1513 28.3985C95.6224 27.6272 94.9061 26.8559 94.0026 26.0845L91.6886 24.0681C90.6748 23.2086 89.8153 22.2389 89.1101 21.159C88.4269 20.0571 88.0853 18.7018 88.0853 17.093C88.0853 14.8231 88.7575 13.0931 90.1018 11.9031C91.4462 10.691 93.2753 10.0849 95.5893 10.0849C97.0218 10.0849 98.1677 10.3273 99.0272 10.8122C99.9088 11.297 100.57 11.9361 101.011 12.7295C101.473 13.5008 101.782 14.3272 101.936 15.2088C102.113 16.0683 102.212 16.8947 102.234 17.688L97.143 18.3161C97.1209 17.5228 97.0658 16.8396 96.9777 16.2666C96.9116 15.6716 96.7573 15.2198 96.5149 14.9113C96.2725 14.5807 95.8978 14.4154 95.391 14.4154C94.84 14.4154 94.4323 14.6468 94.1678 15.1096C93.9254 15.5724 93.8042 16.0352 93.8042 16.498C93.8042 17.4897 94.0356 18.3051 94.4984 18.9442C94.9833 19.5613 95.6113 20.2114 96.3827 20.8946L98.5975 22.8449C99.7655 23.8367 100.746 24.9606 101.54 26.2168C102.355 27.4729 102.763 29.0266 102.763 30.8778C102.763 32.134 102.476 33.2799 101.903 34.3157C101.33 35.3295 100.515 36.1339 99.457 36.7289C98.4212 37.3239 97.1871 37.6214 95.7546 37.6214ZM104.636 10.4486V37.2248H116.735V33.2249H110.553V25.225H115.214V21.126H110.553V14.4815H116.669V10.4486H104.636Z"
  fill="#ffd600"
/>
</svg>
