<svg width="39" height="36" viewBox="0 0 39 36" fill="none" xmlns="http://www.w3.org/2000/svg">
<path fill-rule="evenodd" clip-rule="evenodd" d="M10.4799 34.7222C11.2762 35.5741 12.4243 36 13.9243 36C15.4243 36 16.5724 35.5741 17.3687 34.7222C18.165 33.8704 18.5632 32.6667 18.5632 31.1111V20.8889C18.5632 19.3333 18.165 18.1296 17.3687 17.2778C16.5724 16.4259 15.4243 16 13.9243 16C12.4243 16 11.2762 16.4259 10.4799 17.2778C9.68356 18.1296 9.28542 19.3333 9.28542 20.8889V31.1111C9.28542 32.6667 9.68356 33.8704 10.4799 34.7222ZM15.5076 31.3056C15.5076 32.5833 14.9799 33.2222 13.9243 33.2222C12.8687 33.2222 12.341 32.5833 12.341 31.3056V20.6944C12.341 19.4167 12.8687 18.7778 13.9243 18.7778C14.9799 18.7778 15.5076 19.4167 15.5076 20.6944V31.3056Z" fill="black"/>
<path d="M0.709473 35.8333H2.12614C3.62614 35.8333 4.73725 35.4444 5.45947 34.6667C6.20022 33.8889 6.57059 32.7037 6.57059 31.1111V20.5551L3.51503 23.6107V31.1944C3.51503 31.8241 3.36688 32.2963 3.07059 32.6111C2.77429 32.9074 2.32059 33.0556 1.70948 33.0556H0.709473V35.8333Z" fill="black"/>
<path d="M6.57059 16.2778V17.7316L3.51503 20.7871V16.2778H6.57059Z" fill="black"/>
<path d="M19.3375 19.0556H22.532V35.7222H25.5875V19.0556H28.782V16.2778H19.3375V19.0556Z" fill="black"/>
<path fill-rule="evenodd" clip-rule="evenodd" d="M35.1239 16.2778H30.9851L27.8184 35.7222H30.6517L31.2073 31.9167H34.6795V31.8611L35.2351 35.7222H38.2906L35.1239 16.2778ZM32.9573 19.6667L34.3184 29.2778H31.5684L32.9017 19.6667H32.9573Z" fill="black"/>
</svg>
