<svg width="24" height="24" viewBox="0 0 24 24" fill="none" xmlns="http://www.w3.org/2000/svg">
  <path
    d="M9.72003 6.30933H6.86304L10.6724 2.5L14.4817 6.30933H11.6247V10.5282C10.9104 10.9662 10.2724 11.5091 9.72003 12.1376V6.30933ZM20.1957 12.0233L16.3864 8.21399V11.071C12.9484 10.9281 10.0153 13.5185 9.72003 16.9469C8.23439 17.4707 7.45348 19.1087 7.97726 20.5943C8.50105 22.0799 10.1391 22.8609 11.6247 22.3371C13.1103 21.8038 13.8912 20.1753 13.3675 18.6896C13.0818 17.8706 12.4342 17.2326 11.6247 16.9469C12.0723 13.1375 15.8816 12.9471 16.3387 12.9471V15.8041L20.1957 12.0233Z"
    fill-rule="evenodd"
    clip-rule="evenodd"
    fill="cyan"
  />
</svg>