<svg width="24" height="24" viewBox="0 0 24 24" fill="none" xmlns="http://www.w3.org/2000/svg">
  <path
    d="M7.632 5.63879H9.29867V7.30546H7.632V11.4721C7.632 11.9142 7.4564 12.3381 7.14384 12.6506C6.83128 12.9632 6.40736 13.1388 5.96533 13.1388C6.40736 13.1388 6.83128 13.3144 7.14384 13.6269C7.4564 13.9395 7.632 14.3634 7.632 14.8055V18.9721H9.29867V20.6388H7.632C6.74033 20.4138 5.96533 19.8888 5.96533 18.9721V15.6388C5.96533 15.1968 5.78974 14.7728 5.47718 14.4603C5.16462 14.1477 4.74069 13.9721 4.29867 13.9721H3.46533V12.3055H4.29867C4.74069 12.3055 5.16462 12.1299 5.47718 11.8173C5.78974 11.5047 5.96533 11.0808 5.96533 10.6388V7.30546C5.96533 6.86343 6.14093 6.43951 6.45349 6.12695C6.76605 5.81439 7.18997 5.63879 7.632 5.63879V5.63879ZM19.2987 5.63879C19.7407 5.63879 20.1646 5.81439 20.4772 6.12695C20.7897 6.43951 20.9653 6.86343 20.9653 7.30546V10.6388C20.9653 11.0808 21.1409 11.5047 21.4535 11.8173C21.766 12.1299 22.19 12.3055 22.632 12.3055H23.4653V13.9721H22.632C22.19 13.9721 21.766 14.1477 21.4535 14.4603C21.1409 14.7728 20.9653 15.1968 20.9653 15.6388V18.9721C20.9653 19.4142 20.7897 19.8381 20.4772 20.1506C20.1646 20.4632 19.7407 20.6388 19.2987 20.6388H17.632V18.9721H19.2987V14.8055C19.2987 14.3634 19.4743 13.9395 19.7868 13.6269C20.0994 13.3144 20.5233 13.1388 20.9653 13.1388C20.5233 13.1388 20.0994 12.9632 19.7868 12.6506C19.4743 12.3381 19.2987 11.9142 19.2987 11.4721V7.30546H17.632V5.63879H19.2987ZM13.4653 15.6388C13.6863 15.6388 13.8983 15.7266 14.0546 15.8829C14.2109 16.0392 14.2987 16.2511 14.2987 16.4721C14.2987 16.6931 14.2109 16.9051 14.0546 17.0614C13.8983 17.2177 13.6863 17.3055 13.4653 17.3055C13.2443 17.3055 13.0324 17.2177 12.8761 17.0614C12.7198 16.9051 12.632 16.6931 12.632 16.4721C12.632 16.2511 12.7198 16.0392 12.8761 15.8829C13.0324 15.7266 13.2443 15.6388 13.4653 15.6388V15.6388ZM10.132 15.6388C10.353 15.6388 10.565 15.7266 10.7213 15.8829C10.8775 16.0392 10.9653 16.2511 10.9653 16.4721C10.9653 16.6931 10.8775 16.9051 10.7213 17.0614C10.565 17.2177 10.353 17.3055 10.132 17.3055C9.91098 17.3055 9.69902 17.2177 9.54274 17.0614C9.38646 16.9051 9.29867 16.6931 9.29867 16.4721C9.29867 16.2511 9.38646 16.0392 9.54274 15.8829C9.69902 15.7266 9.91098 15.6388 10.132 15.6388ZM16.7987 15.6388C17.0197 15.6388 17.2316 15.7266 17.3879 15.8829C17.5442 16.0392 17.632 16.2511 17.632 16.4721C17.632 16.6931 17.5442 16.9051 17.3879 17.0614C17.2316 17.2177 17.0197 17.3055 16.7987 17.3055C16.5777 17.3055 16.3657 17.2177 16.2094 17.0614C16.0531 16.9051 15.9653 16.6931 15.9653 16.4721C15.9653 16.2511 16.0531 16.0392 16.2094 15.8829C16.3657 15.7266 16.5777 15.6388 16.7987 15.6388V15.6388Z"
    fill-rule="evenodd"
    clip-rule="evenodd"
    fill="limegreen"
  />
</svg>