<svg width="24" height="24" viewBox="0 0 24 24" fill="none" xmlns="http://www.w3.org/2000/svg">
  <path
    d="M13.4653 3.13879C12.1521 3.13879 10.8518 3.39745 9.6385 3.9C8.42524 4.40255 7.32285 5.13914 6.39426 6.06773C4.5189 7.94309 3.46533 10.4866 3.46533 13.1388C3.46533 15.791 4.5189 18.3345 6.39426 20.2099C7.32285 21.1384 8.42524 21.875 9.6385 22.3776C10.8518 22.8801 12.1521 23.1388 13.4653 23.1388C16.1175 23.1388 18.661 22.0852 20.5364 20.2099C22.4118 18.3345 23.4653 15.791 23.4653 13.1388C23.4653 11.8256 23.2067 10.5252 22.7041 9.31196C22.2016 8.0987 21.465 6.99631 20.5364 6.06773C19.6078 5.13914 18.5054 4.40255 17.2922 3.9C16.0789 3.39745 14.7786 3.13879 13.4653 3.13879V3.13879ZM17.6653 17.3388L12.4653 14.1388V8.13879H13.9653V13.3388L18.4653 16.0388L17.6653 17.3388Z"
    fill-rule="evenodd"
    clip-rule="evenodd"
    fill="orange"
  />
</svg>