<svg width="125" height="107" viewBox="0 0 125 107" fill="none" xmlns="http://www.w3.org/2000/svg">
<path fill-rule="evenodd" clip-rule="evenodd" d="M102.675 101.294L104.623 99.3458L100.193 94.9157L98.2448 96.8634L102.675 101.294ZM96.5623 95.1809L98.5101 93.2332L94.0799 88.803L92.1322 90.7507L96.5623 95.1809ZM90.4497 89.0682L92.3974 87.1205L87.9673 82.6904L86.0195 84.6381L90.4497 89.0682ZM84.337 82.9556L86.2848 81.0079L81.8546 76.5777L79.9069 78.5254L84.337 82.9556ZM78.2244 76.8429L80.1721 74.8952L75.742 70.4651L73.7942 72.4128L78.2244 76.8429ZM72.1117 70.7303L74.0594 68.7826L69.6293 64.3524L67.6816 66.3001L72.1117 70.7303ZM65.9991 64.6176L67.9468 62.6699L63.5166 58.2398L61.5689 60.1875L65.9991 64.6176ZM59.8864 58.505L61.8341 56.5572L57.404 52.1271L55.4563 54.0748L59.8864 58.505ZM53.7738 52.3923L55.7215 50.4446L51.2913 46.0144L49.3436 47.9622L53.7738 52.3923ZM47.6611 46.2797L49.6088 44.3319L45.1787 39.9018L43.231 41.8495L47.6611 46.2797ZM41.5485 40.167L43.4962 38.2193L39.066 33.7891L37.1183 35.7369L41.5485 40.167ZM35.4358 34.0544L37.3835 32.1066L32.9534 27.6765L31.0057 29.6242L35.4358 34.0544ZM29.3232 27.9417L31.2709 25.994L26.8409 21.564L24.8932 23.5117L29.3232 27.9417ZM23.2107 21.8292L25.1584 19.8815L20.7284 15.4515L18.7807 17.3992L23.2107 21.8292ZM17.0982 15.7167L19.0459 13.769L19.0459 13.769L17.0982 15.7167L17.0982 15.7167Z" fill="#BBBBBB"/>
<path fill-rule="evenodd" clip-rule="evenodd" d="M2.93309e-05 57.3751L1.74403e-07 57.3751L0 59.37H2.92437e-05L2.93309e-05 57.3751ZM2.37945 59.37L8.64463 59.37L8.64463 57.3751L2.37945 57.3751V59.37ZM11.024 57.3751V59.37L17.2892 59.37V57.3751L11.024 57.3751ZM19.6686 57.3751L19.6686 59.37L25.9338 59.37L25.9338 57.3751L19.6686 57.3751ZM28.3132 57.3751L28.3132 59.37L34.5784 59.37V57.3751L28.3132 57.3751ZM36.9578 57.3751V59.37L43.223 59.37L43.223 57.3751L36.9578 57.3751ZM45.6024 57.3751L45.6024 59.37L51.8676 59.37V57.3751L45.6024 57.3751ZM54.247 57.3751V59.37L60.5122 59.37V57.3751L54.247 57.3751ZM62.8916 57.3751V59.37L69.1568 59.37V57.3751L62.8916 57.3751ZM71.5362 57.3751V59.37L77.8014 59.37V57.3751L71.5362 57.3751ZM80.1808 57.3751V59.37L86.446 59.37V57.3751L80.1808 57.3751ZM88.8254 57.3751V59.37L95.0906 59.37V57.3751L88.8254 57.3751ZM97.47 57.3751V59.37L103.735 59.37V57.3751L97.47 57.3751ZM106.115 57.3751V59.37L112.38 59.37V57.3751L106.115 57.3751ZM114.759 57.3751V59.37L121.024 59.37V57.3751L114.759 57.3751Z" fill="#BBBBBB"/>
<path d="M72.893 37.0662L73.8988 36.0604L72.6119 35.4544C69.3136 33.9013 65.6317 33.0331 61.7555 33.0331C47.7193 33.0331 36.2537 44.4109 36.2537 58.4556C36.2537 72.5003 47.7193 83.8781 61.7555 83.8781C75.7917 83.8781 87.2572 72.5003 87.2572 58.4556C87.2572 54.6115 86.3974 50.9643 84.8598 47.6958L84.2541 46.4081L83.2478 47.4144L67.9219 62.7403L68.4361 63.2546L67.9219 62.7403C65.8805 64.7817 63.7371 65.5727 61.8269 65.5727C59.9034 65.5728 58.1308 64.7715 56.835 63.4757C55.5392 62.1799 54.738 60.4073 54.738 58.4838C54.738 56.5736 55.529 54.4302 57.5704 52.3888L72.893 37.0662Z" fill="#A4FCBC" stroke="black" stroke-width="2"/>
<path d="M85.3604 45.5275L84.8491 46.0387L85.1744 46.6845C86.9564 50.2226 87.9603 54.2204 87.9603 58.4556C87.9603 72.9281 76.228 84.6604 61.7555 84.6604C47.283 84.6604 35.5507 72.9281 35.5507 58.4556C35.5507 43.983 47.283 32.2507 61.7555 32.2507C65.9907 32.2507 69.9885 33.2547 73.5266 35.0367L74.1723 35.3619L74.6836 34.8507L77.6643 31.8699L78.5998 30.9344L77.4446 30.2896C72.8004 27.6973 67.4489 26.2204 61.7555 26.2204C43.9525 26.2204 29.5203 40.6526 29.5203 58.4556C29.5203 76.2586 43.9525 90.6907 61.7555 90.6907C79.5585 90.6907 93.9907 76.2586 93.9907 58.4556C93.9907 52.7621 92.5138 47.4107 89.9215 42.7664L89.2766 41.6112L88.3412 42.5467L85.3604 45.5275Z" fill="#34F76B" stroke="black" stroke-width="2"/>
<path d="M93.6978 35.9882L94.4049 35.2811L93.6978 34.574L85.6371 26.5133L84.93 25.8062L84.2229 26.5133L58.0257 52.7105L58.6727 53.3576L58.0257 52.7105C56.3496 54.3866 55.5916 56.2705 55.5916 58.0778C55.5916 59.8717 56.3394 61.5068 57.5219 62.6893C58.7044 63.8718 60.3394 64.6195 62.1334 64.6195C63.9406 64.6195 65.8245 63.8615 67.5006 62.1854L93.6978 35.9882ZM59.7328 58.4556C59.7328 57.3384 60.6384 56.4328 61.7555 56.4328C62.8727 56.4328 63.7783 57.3384 63.7783 58.4556C63.7783 59.5727 62.8727 60.4783 61.7555 60.4783C60.6384 60.4783 59.7328 59.5727 59.7328 58.4556Z" fill="#34F76B" stroke="black" stroke-width="2"/>
<path d="M92.5917 32.266L93.2988 32.9731L94.0059 32.266L97.0168 29.2552C101.4 30.3474 106.235 29.1809 109.665 25.7511C114.865 20.5507 114.865 12.1192 109.665 6.91884C104.96 2.21399 97.6121 1.76614 92.4026 5.57314C91.8531 5.97474 91.3278 6.42339 90.8323 6.91884L90.1252 7.62595L90.8323 8.33306L94.9767 12.4775L95.6839 13.1846L96.391 12.4775C98.5214 10.347 101.976 10.347 104.106 12.4775C106.236 14.6079 106.236 18.062 104.106 20.1925C102.085 22.2138 98.8708 22.3174 96.7281 20.5029L96.4043 20.1791L95.7031 19.4779L94.996 20.1731L88.4054 26.6536L87.6864 27.3606L88.3995 28.0737L92.5917 32.266Z" fill="#34F76B" stroke="black" stroke-width="2"/>
</svg>
