<svg width="472" height="190" viewBox="0 0 472 190" fill="none" xmlns="http://www.w3.org/2000/svg">
<path d="M177.481 121.134H182.614C184.798 121.134 186.345 121.743 187.254 122.961C188.162 124.16 188.617 125.803 188.617 127.891V137.635C188.617 139.839 188.172 141.56 187.283 142.797C186.413 144.015 184.905 144.624 182.759 144.624H177.481V121.134ZM182.672 143.377C183.87 143.377 184.789 143.126 185.427 142.623C186.065 142.101 186.49 141.415 186.703 140.564C186.915 139.714 187.022 138.679 187.022 137.461V128.007C187.022 126.132 186.703 124.73 186.065 123.802C185.446 122.874 184.296 122.41 182.614 122.41H179.047V143.377H182.672ZM196.29 137.113L190.867 121.134H192.491L197.102 135.228L201.481 121.134H203.105L197.856 137.113V144.624H196.29V137.113ZM205.858 121.134H207.105L215.08 140.97V121.134H216.472V144.624H215.225L207.25 124.759V144.624H205.858V121.134ZM224.465 121.134H226.292L231.251 144.624H229.656L228.438 138.128H222.348L221.101 144.624H219.535L224.465 121.134ZM228.235 136.968L225.393 123.048L222.58 136.968H228.235ZM234.754 121.134H236.32L241.279 142.333L246.325 121.134H247.949L248.616 144.624H247.253L246.673 124.933L241.888 144.624H240.728L236.001 124.962L235.421 144.624H234.058L234.754 121.134ZM252.7 121.134H254.266V144.624H252.7V121.134ZM263.867 144.943C261.721 144.943 260.232 144.325 259.401 143.087C258.569 141.831 258.154 140.091 258.154 137.867V127.891C258.154 125.668 258.579 123.947 259.43 122.729C260.28 121.492 261.759 120.873 263.867 120.873C265.819 120.873 267.202 121.444 268.014 122.584C268.826 123.706 269.232 125.339 269.232 127.485V128.674H267.724V127.485C267.724 125.687 267.443 124.353 266.883 123.483C266.322 122.613 265.317 122.178 263.867 122.178C262.281 122.178 261.199 122.642 260.619 123.57C260.039 124.498 259.749 125.881 259.749 127.717V138.099C259.749 139.955 260.048 141.347 260.648 142.275C261.247 143.184 262.32 143.638 263.867 143.638C265.336 143.638 266.341 143.194 266.883 142.304C267.443 141.396 267.724 140.062 267.724 138.302V136.881H269.232V138.041C269.232 140.245 268.835 141.947 268.043 143.145C267.25 144.344 265.858 144.943 263.867 144.943ZM276.357 145.175V142.826C277.073 142.826 277.653 142.778 278.097 142.681C278.542 142.585 278.88 142.411 279.112 142.159C279.364 141.908 279.538 141.55 279.634 141.086C279.731 140.603 279.779 139.994 279.779 139.259V121.134H283.027V139.317C283.027 140.671 282.882 141.782 282.592 142.652C282.302 143.503 281.79 144.141 281.055 144.566C280.321 144.972 279.277 145.175 277.923 145.175H276.357ZM292.243 144.885C290.89 144.885 289.759 144.595 288.85 144.015C287.961 143.435 287.284 142.633 286.82 141.608C286.356 140.584 286.085 139.395 286.008 138.041L288.908 137.258C288.966 138.09 289.092 138.892 289.285 139.665C289.498 140.439 289.836 141.077 290.3 141.579C290.764 142.063 291.412 142.304 292.243 142.304C293.094 142.304 293.732 142.072 294.157 141.608C294.602 141.125 294.824 140.439 294.824 139.549C294.824 138.486 294.582 137.635 294.099 136.997C293.616 136.34 293.007 135.683 292.272 135.025L288.328 131.545C287.555 130.869 286.984 130.134 286.617 129.341C286.25 128.529 286.066 127.534 286.066 126.354C286.066 124.634 286.559 123.3 287.545 122.352C288.531 121.405 289.875 120.931 291.576 120.931C292.504 120.931 293.316 121.057 294.012 121.308C294.727 121.54 295.317 121.908 295.781 122.41C296.264 122.913 296.641 123.551 296.912 124.324C297.202 125.078 297.395 125.968 297.492 126.992L294.708 127.746C294.65 126.973 294.534 126.267 294.36 125.629C294.186 124.972 293.877 124.45 293.432 124.063C293.007 123.657 292.388 123.454 291.576 123.454C290.764 123.454 290.126 123.677 289.662 124.121C289.217 124.547 288.995 125.185 288.995 126.035C288.995 126.751 289.111 127.34 289.343 127.804C289.594 128.268 289.991 128.742 290.532 129.225L294.505 132.705C295.394 133.479 296.177 134.407 296.854 135.489C297.531 136.553 297.869 137.819 297.869 139.288C297.869 140.448 297.627 141.454 297.144 142.304C296.661 143.136 295.994 143.774 295.143 144.218C294.312 144.663 293.345 144.885 292.243 144.885ZM306.98 144.624L307.415 121.134H310.634L314.781 140.187L318.957 121.134H322.147L322.582 144.624H319.943L319.682 127.572L315.709 144.624H313.853L309.909 127.572L309.648 144.624H306.98ZM332.185 144.885C330.6 144.885 329.334 144.576 328.386 143.957C327.439 143.339 326.762 142.459 326.356 141.318C325.95 140.158 325.747 138.805 325.747 137.258V128.355C325.747 126.809 325.95 125.484 326.356 124.382C326.782 123.261 327.458 122.41 328.386 121.83C329.334 121.231 330.6 120.931 332.185 120.931C333.771 120.931 335.027 121.231 335.955 121.83C336.883 122.43 337.55 123.28 337.956 124.382C338.382 125.484 338.594 126.809 338.594 128.355V137.287C338.594 138.815 338.382 140.149 337.956 141.289C337.55 142.43 336.883 143.319 335.955 143.957C335.027 144.576 333.771 144.885 332.185 144.885ZM332.185 142.304C333.055 142.304 333.713 142.13 334.157 141.782C334.602 141.415 334.902 140.912 335.056 140.274C335.211 139.617 335.288 138.853 335.288 137.983V127.688C335.288 126.818 335.211 126.074 335.056 125.455C334.902 124.817 334.602 124.334 334.157 124.005C333.713 123.657 333.055 123.483 332.185 123.483C331.315 123.483 330.648 123.657 330.184 124.005C329.74 124.334 329.44 124.817 329.285 125.455C329.131 126.074 329.053 126.818 329.053 127.688V137.983C329.053 138.853 329.131 139.617 329.285 140.274C329.44 140.912 329.74 141.415 330.184 141.782C330.648 142.13 331.315 142.304 332.185 142.304ZM347.702 144.885C346.04 144.885 344.744 144.537 343.816 143.841C342.908 143.145 342.27 142.208 341.902 141.028C341.554 139.849 341.38 138.534 341.38 137.084V128.79C341.38 127.205 341.554 125.823 341.902 124.643C342.27 123.464 342.908 122.555 343.816 121.917C344.744 121.26 346.04 120.931 347.702 120.931C349.172 120.931 350.332 121.202 351.182 121.743C352.052 122.285 352.671 123.058 353.038 124.063C353.425 125.069 353.618 126.277 353.618 127.688V129.544H350.515V127.891C350.515 127.021 350.467 126.258 350.37 125.6C350.293 124.924 350.061 124.402 349.674 124.034C349.288 123.667 348.64 123.483 347.731 123.483C346.803 123.483 346.127 123.686 345.701 124.092C345.276 124.479 344.996 125.04 344.86 125.774C344.744 126.49 344.686 127.331 344.686 128.297V137.606C344.686 138.786 344.783 139.723 344.976 140.419C345.17 141.096 345.489 141.579 345.933 141.869C346.378 142.159 346.977 142.304 347.731 142.304C348.621 142.304 349.259 142.111 349.645 141.724C350.032 141.318 350.274 140.767 350.37 140.071C350.467 139.375 350.515 138.563 350.515 137.635V135.895H353.618V137.635C353.618 139.066 353.444 140.332 353.096 141.434C352.748 142.517 352.149 143.368 351.298 143.986C350.448 144.586 349.249 144.885 347.702 144.885ZM356.74 144.624V121.134H360.017V132.212L365.411 121.134H368.456L363.816 131.487L369.21 144.624H366.02L361.525 133.604L360.017 136.33V144.624H356.74ZM381.639 144.914C378.178 144.914 376.293 142.884 375.984 138.824L377.347 138.389C377.579 140.129 377.994 141.434 378.594 142.304C379.212 143.174 380.237 143.609 381.668 143.609C384.162 143.609 385.409 142.353 385.409 139.839C385.409 138.873 385.167 137.993 384.684 137.2C384.2 136.408 383.427 135.48 382.364 134.416L378.072 130.153C376.699 128.781 376.013 127.292 376.013 125.687C376.013 124.16 376.477 122.981 377.405 122.149C378.352 121.299 379.609 120.873 381.175 120.873C382.857 120.873 384.152 121.328 385.061 122.236C385.969 123.126 386.491 124.634 386.627 126.76L385.293 127.079C385.157 125.359 384.78 124.112 384.162 123.338C383.562 122.546 382.576 122.149 381.204 122.149C380.082 122.149 379.174 122.439 378.478 123.019C377.801 123.58 377.463 124.431 377.463 125.571C377.463 126.19 377.588 126.789 377.84 127.369C378.11 127.93 378.555 128.52 379.174 129.138L383.408 133.314C384.49 134.378 385.341 135.431 385.96 136.475C386.578 137.519 386.888 138.612 386.888 139.752C386.888 141.454 386.414 142.739 385.467 143.609C384.519 144.479 383.243 144.914 381.639 144.914ZM390.024 121.134H398.144V122.41H391.619V131.835H396.984V133.053H391.619V143.377H398.231V144.624H390.024V121.134ZM401.438 121.134H407.122C409.055 121.134 410.399 121.647 411.153 122.671C411.907 123.696 412.284 125.117 412.284 126.934C412.284 128.462 412.032 129.718 411.53 130.704C411.046 131.69 410.147 132.29 408.833 132.502L412.603 144.624H411.037L407.383 132.792H403.004V144.624H401.438V121.134ZM407.064 131.574C408.475 131.574 409.442 131.197 409.964 130.443C410.486 129.67 410.747 128.5 410.747 126.934C410.747 125.349 410.476 124.199 409.935 123.483C409.413 122.749 408.446 122.381 407.035 122.381H403.004V131.574H407.064ZM414.685 121.134H416.251L421.123 141.869L425.676 121.134H427.213L421.848 144.624H420.369L414.685 121.134ZM430.069 121.134H438.189V122.41H431.664V131.835H437.029V133.053H431.664V143.377H438.276V144.624H430.069V121.134ZM441.483 121.134H447.167C449.1 121.134 450.444 121.647 451.198 122.671C451.952 123.696 452.329 125.117 452.329 126.934C452.329 128.462 452.077 129.718 451.575 130.704C451.091 131.69 450.192 132.29 448.878 132.502L452.648 144.624H451.082L447.428 132.792H443.049V144.624H441.483V121.134ZM447.109 131.574C448.52 131.574 449.487 131.197 450.009 130.443C450.531 129.67 450.792 128.5 450.792 126.934C450.792 125.349 450.521 124.199 449.98 123.483C449.458 122.749 448.491 122.381 447.08 122.381H443.049V131.574H447.109Z" fill="#555555"/>
<path d="M177.538 46.9003H190.908C195.481 46.9003 199.075 47.5303 201.688 48.7903C204.301 50.0037 206.145 51.8937 207.218 54.4603C208.338 56.9803 208.898 60.3403 208.898 64.5403V85.1903C208.898 89.4837 208.338 92.9603 207.218 95.6203C206.145 98.2803 204.325 100.287 201.758 101.64C199.191 102.947 195.715 103.6 191.328 103.6H177.538V46.9003ZM191.048 96.3903C193.335 96.3903 194.991 95.9937 196.018 95.2003C197.045 94.407 197.698 93.3103 197.978 91.9103C198.258 90.4637 198.398 88.3403 198.398 85.5403V63.8403C198.398 61.3203 198.235 59.407 197.908 58.1003C197.581 56.7937 196.881 55.837 195.808 55.2303C194.781 54.577 193.148 54.2503 190.908 54.2503H187.828V96.3903H191.048ZM216.503 46.9003H230.153C236.126 46.9003 240.583 48.0437 243.523 50.3303C246.463 52.5703 247.933 56.4437 247.933 61.9503C247.933 65.5437 247.396 68.4837 246.323 70.7703C245.296 73.0103 243.5 74.6437 240.933 75.6703L248.843 103.6H238.483L231.693 77.6303H226.793V103.6H216.503V46.9003ZM230.083 71.1903C233.023 71.1903 235.1 70.5137 236.313 69.1603C237.573 67.807 238.203 65.5903 238.203 62.5103C238.203 59.5237 237.643 57.3537 236.523 56.0003C235.45 54.647 233.49 53.9703 230.643 53.9703H226.793V71.1903H230.083ZM270.938 104.37C265.058 104.37 260.858 102.807 258.338 99.6803C255.818 96.507 254.558 91.887 254.558 85.8203V64.5403C254.558 58.5203 255.818 53.9703 258.338 50.8903C260.858 47.8103 265.058 46.2703 270.938 46.2703C276.771 46.2703 280.948 47.8103 283.468 50.8903C285.988 53.9703 287.248 58.5203 287.248 64.5403V85.8203C287.248 91.8403 285.964 96.437 283.398 99.6103C280.878 102.784 276.724 104.37 270.938 104.37ZM270.938 96.7403C273.224 96.7403 274.764 96.017 275.558 94.5703C276.351 93.1237 276.748 91.0237 276.748 88.2703V62.1603C276.748 59.407 276.351 57.3303 275.558 55.9303C274.811 54.5303 273.271 53.8303 270.938 53.8303C268.604 53.8303 267.041 54.5537 266.248 56.0003C265.454 57.4003 265.058 59.4537 265.058 62.1603V88.2703C265.058 91.0237 265.454 93.1237 266.248 94.5703C267.041 96.017 268.604 96.7403 270.938 96.7403ZM309.191 104.37C304.058 104.37 300.208 102.924 297.641 100.03C295.121 97.137 293.745 92.8203 293.511 87.0803L302.401 85.3303C302.541 88.9237 303.101 91.677 304.081 93.5903C305.108 95.457 306.695 96.3903 308.841 96.3903C310.428 96.3903 311.595 95.9237 312.341 94.9903C313.135 94.0103 313.531 92.7037 313.531 91.0703C313.531 88.8303 313.018 86.9403 311.991 85.4003C311.011 83.8137 309.448 82.087 307.301 80.2203L300.161 73.9903C297.968 72.1237 296.311 70.117 295.191 67.9703C294.118 65.8237 293.581 63.257 293.581 60.2703C293.581 55.837 294.865 52.407 297.431 49.9803C300.045 47.507 303.638 46.2703 308.211 46.2703C313.111 46.2703 316.611 47.6703 318.711 50.4703C320.858 53.2237 322.095 56.957 322.421 61.6703L313.531 63.2103C313.391 60.1303 312.948 57.8203 312.201 56.2803C311.501 54.6937 310.101 53.9003 308.001 53.9003C306.508 53.9003 305.341 54.4137 304.501 55.4403C303.661 56.4203 303.241 57.6803 303.241 59.2203C303.241 61.0403 303.591 62.5803 304.291 63.8403C305.038 65.0537 306.228 66.3603 307.861 67.7603L314.931 73.9903C317.591 76.277 319.668 78.727 321.161 81.3403C322.655 83.9537 323.401 86.987 323.401 90.4403C323.401 93.147 322.795 95.5503 321.581 97.6503C320.415 99.7503 318.758 101.407 316.611 102.62C314.465 103.787 311.991 104.37 309.191 104.37ZM343.234 104.37C338.101 104.37 334.251 102.924 331.684 100.03C329.164 97.137 327.787 92.8203 327.554 87.0803L336.444 85.3303C336.584 88.9237 337.144 91.677 338.124 93.5903C339.151 95.457 340.737 96.3903 342.884 96.3903C344.471 96.3903 345.637 95.9237 346.384 94.9903C347.177 94.0103 347.574 92.7037 347.574 91.0703C347.574 88.8303 347.061 86.9403 346.034 85.4003C345.054 83.8137 343.491 82.087 341.344 80.2203L334.204 73.9903C332.011 72.1237 330.354 70.117 329.234 67.9703C328.161 65.8237 327.624 63.257 327.624 60.2703C327.624 55.837 328.907 52.407 331.474 49.9803C334.087 47.507 337.681 46.2703 342.254 46.2703C347.154 46.2703 350.654 47.6703 352.754 50.4703C354.901 53.2237 356.137 56.957 356.464 61.6703L347.574 63.2103C347.434 60.1303 346.991 57.8203 346.244 56.2803C345.544 54.6937 344.144 53.9003 342.044 53.9003C340.551 53.9003 339.384 54.4137 338.544 55.4403C337.704 56.4203 337.284 57.6803 337.284 59.2203C337.284 61.0403 337.634 62.5803 338.334 63.8403C339.081 65.0537 340.271 66.3603 341.904 67.7603L348.974 73.9903C351.634 76.277 353.711 78.727 355.204 81.3403C356.697 83.9537 357.444 86.987 357.444 90.4403C357.444 93.147 356.837 95.5503 355.624 97.6503C354.457 99.7503 352.801 101.407 350.654 102.62C348.507 103.787 346.034 104.37 343.234 104.37ZM363.544 46.9003H387.344V54.1803H373.834V70.4903H384.474V77.7003H373.834V96.5303H387.484V103.6H363.544V46.9003Z" fill="#34F66B"/>
<path fill-rule="evenodd" clip-rule="evenodd" d="M43.9167 49.2812L49.3015 54.6659L46.934 57.0334L41.5492 51.6487L43.9167 49.2812ZM48.9791 59.0786L54.3639 64.4633L56.7314 62.0958L51.3466 56.7111L48.9791 59.0786ZM58.7765 64.141L56.409 66.5085L61.794 71.8934L64.1615 69.5259L58.7765 64.141ZM66.2066 71.5711L63.8391 73.9386L69.224 79.3235L71.5916 76.956L66.2066 71.5711ZM73.6367 79.0011L71.2692 81.3687L76.6541 86.7536L79.0216 84.3861L73.6367 79.0011ZM81.0668 86.4312L78.6993 88.7988L84.0842 94.1837L86.4517 91.8162L81.0668 86.4312ZM88.4969 93.8613L86.1294 96.2288L91.5143 101.614L93.8818 99.2463L88.4969 93.8613ZM95.927 101.291L93.5594 103.659L98.9444 109.044L101.312 106.676L95.927 101.291ZM103.357 108.722L100.99 111.089L106.375 116.474L108.742 114.106L103.357 108.722ZM110.787 116.152L108.42 118.519L113.805 123.904L116.172 121.537L110.787 116.152ZM118.217 123.582L115.85 125.949L121.235 131.334L123.602 128.967L118.217 123.582ZM125.647 131.012L123.28 133.379L128.665 138.764L131.032 136.397L125.647 131.012ZM133.077 138.442L130.71 140.809L136.095 146.194L138.462 143.827L133.077 138.442ZM140.508 145.872L138.14 148.239L143.525 153.624L145.892 151.257L140.508 145.872Z" fill="#BBBBBB"/>
<path fill-rule="evenodd" clip-rule="evenodd" d="M21.6131 102.665L29.2286 102.665V100.24L21.6131 100.24L21.6131 102.665ZM32.1208 100.24L32.1208 102.665L39.7363 102.665L39.7363 100.24L32.1208 100.24ZM42.6286 100.24V102.665L50.244 102.665L50.2441 100.24L42.6286 100.24ZM53.1363 100.24V102.665L60.7518 102.665V100.24L53.1363 100.24ZM63.644 100.24L63.644 102.665L71.2595 102.665V100.24L63.644 100.24ZM74.1518 100.24L74.1518 102.665L81.7673 102.665V100.24L74.1518 100.24ZM84.6595 100.24L84.6595 102.665L92.275 102.665V100.24L84.6595 100.24ZM95.1672 100.24V102.665L102.783 102.665V100.24L95.1672 100.24ZM105.675 100.24V102.665L113.29 102.665V100.24L105.675 100.24ZM116.183 100.24V102.665L123.798 102.665V100.24L116.183 100.24ZM126.69 100.24V102.665L134.306 102.665V100.24L126.69 100.24ZM137.198 100.24V102.665L144.814 102.665V100.24L137.198 100.24ZM147.706 100.24V102.665L155.321 102.665V100.24L147.706 100.24ZM158.213 100.24V102.665L165.829 102.665V100.24L158.213 100.24Z" fill="#BBBBBB"/>
<circle cx="93.7209" cy="101.453" r="36.8604" fill="#C5FCD1"/>
<path fill-rule="evenodd" clip-rule="evenodd" d="M65.2337 74.3201L58.0585 84.2858L53.6736 95.4472L53.6736 108.203L58.2578 118.767L64.6358 129.131L78.189 138.698L93.1374 141.688L108.484 138.299L121.44 130.526L130.209 116.574L133.996 100.829L130.807 86.0796L127.419 79.5023L134.395 72.5263L130.807 67.7428L136.188 63.358H145.467L151.803 59.3007L154.405 49.8527L152.312 41.5361L142.412 35.9917L135 36.7838L131.549 39.7257L135 42.4979L142.129 41.5361L147.277 44.4214L149.427 51.6065L147.277 55.6233L142.751 58.8481L136.641 58.1692L134.395 56.7058L131.928 59.6351L127.419 63.358L122.636 60.7669L115.66 67.7428L104.1 63.358L91.9416 61.5642L79.5842 62.76L70.8145 68.7394L65.2337 74.3201ZM72.0103 78.705L65.8317 84.8837L61.6461 95.4473L63.0413 109.598L66.2303 117.97L73.0069 124.746L83.1718 132.121L95.1306 133.715L108.684 130.128L115.66 125.543L122.436 116.375L125.227 107.207L125.825 95.4473L122.038 86.4782L118.251 87.8734L98.1202 108.004L93.1374 109.399L88.3539 107.406L85.5636 104.616L85.7629 98.4369L93.9347 90.2651L109.88 74.3202L104.498 71.7291L96.5257 69.736L83.5705 71.1312L72.0103 78.705Z" fill="#34F76B"/>
<mask id="path-7-inside-1" fill="white">
<path fill-rule="evenodd" clip-rule="evenodd" d="M135.232 56.079C138.321 58.7303 142.98 58.5928 145.906 55.6667C148.976 52.5964 148.976 47.6185 145.906 44.5482C142.836 41.4779 137.858 41.4779 134.787 44.5482L129.74 39.5007C135.598 33.6427 145.096 33.6427 150.953 39.5007C156.811 45.3586 156.811 54.8563 150.953 60.7142C146.919 64.7485 141.159 66.0045 136.05 64.482L131.728 68.8039L126.689 63.7652L129.74 60.7142L134.787 55.6667L134.804 55.6505L135.232 56.079Z"/>
</mask>
<path d="M145.906 55.6667L144.492 54.2525L145.906 55.6667ZM135.232 56.079L133.818 57.4932L133.872 57.5471L133.93 57.5966L135.232 56.079ZM145.906 44.5482L144.492 45.9624L144.492 45.9624L145.906 44.5482ZM134.787 44.5482L133.373 45.9624L134.787 47.3766L136.202 45.9624L134.787 44.5482ZM129.74 39.5007L128.326 38.0865L126.911 39.5007L128.326 40.9149L129.74 39.5007ZM150.953 39.5007L152.368 38.0865L152.368 38.0865L150.953 39.5007ZM150.953 60.7142L149.539 59.3L150.953 60.7142ZM136.05 64.482L136.621 62.5653L135.478 62.2249L134.635 63.0678L136.05 64.482ZM131.728 68.8039L130.313 70.2181L131.728 71.6323L133.142 70.2181L131.728 68.8039ZM126.689 63.7652L125.275 62.351L123.861 63.7652L125.275 65.1794L126.689 63.7652ZM129.74 60.7142L128.326 59.3L128.326 59.3L129.74 60.7142ZM134.787 55.6667L136.202 57.081L134.787 55.6667ZM134.804 55.6505L136.218 54.2363L134.804 52.822L133.389 54.2363L134.804 55.6505ZM144.492 54.2525C142.311 56.4336 138.836 56.5369 136.535 54.5614L133.93 57.5966C137.806 60.9237 143.649 60.7521 147.32 57.081L144.492 54.2525ZM144.492 45.9624C146.781 48.2516 146.781 51.9633 144.492 54.2525L147.32 57.081C151.172 53.2296 151.172 46.9853 147.32 43.134L144.492 45.9624ZM136.202 45.9624C138.491 43.6731 142.203 43.6731 144.492 45.9624L147.32 43.134C143.469 39.2826 137.225 39.2826 133.373 43.134L136.202 45.9624ZM128.326 40.9149L133.373 45.9624L136.202 43.134L131.154 38.0865L128.326 40.9149ZM152.368 38.0865C145.729 31.4474 134.965 31.4474 128.326 38.0865L131.154 40.9149C136.231 35.838 144.462 35.838 149.539 40.9149L152.368 38.0865ZM152.368 62.1284C159.007 55.4894 159.007 44.7255 152.368 38.0865L149.539 40.9149C154.616 45.9918 154.616 54.2231 149.539 59.3L152.368 62.1284ZM135.478 66.3988C141.263 68.1225 147.794 66.7026 152.368 62.1284L149.539 59.3C146.045 62.7945 141.054 63.8864 136.621 62.5653L135.478 66.3988ZM134.635 63.0678L130.313 67.3897L133.142 70.2181L137.464 65.8963L134.635 63.0678ZM133.142 67.3897L128.103 62.351L125.275 65.1794L130.313 70.2181L133.142 67.3897ZM128.103 65.1794L131.154 62.1284L128.326 59.3L125.275 62.351L128.103 65.1794ZM133.373 54.2525L128.326 59.3L131.154 62.1284L136.202 57.081L133.373 54.2525ZM136.202 57.081L136.218 57.0647L133.389 54.2363L133.373 54.2525L136.202 57.081ZM133.389 57.0647L133.818 57.4932L136.646 54.6648L136.218 54.2363L133.389 57.0647Z" fill="black" mask="url(#path-7-inside-1)"/>
<path d="M96.3272 98.8466C97.7667 100.286 97.7667 102.62 96.3272 104.059C94.8878 105.499 92.5539 105.499 91.1145 104.059C89.675 102.62 89.675 100.286 91.1145 98.8466C92.5539 97.4071 94.8878 97.4071 96.3272 98.8466Z" fill="black"/>
<path fill-rule="evenodd" clip-rule="evenodd" d="M126.638 82.9219C134.752 97.3166 132.681 115.901 120.425 128.157C105.677 142.905 81.765 142.905 67.0168 128.157C52.2686 113.409 52.2686 89.4971 67.0168 74.7489C79.2729 62.4928 97.8573 60.4218 112.252 68.5359L114.864 65.9239C98.9953 56.4647 78.1531 58.5651 64.4931 72.2251C48.351 88.3672 48.351 114.539 64.4931 130.681C80.6351 146.823 106.807 146.823 122.949 130.681C136.609 117.021 138.709 96.1786 129.25 80.3099L126.638 82.9219Z" fill="black"/>
<path fill-rule="evenodd" clip-rule="evenodd" d="M121.012 88.5478C126.307 99.7469 124.324 113.531 115.062 122.794C103.275 134.58 84.1662 134.58 72.3801 122.794C60.5939 111.007 60.5939 91.8983 72.3801 80.1122C81.6423 70.8499 95.427 68.8665 106.626 74.1618L109.289 71.4986C96.5733 64.8852 80.5296 66.9151 69.8563 77.5884C56.6763 90.7684 56.6763 112.137 69.8563 125.317C83.0363 138.497 104.405 138.497 117.585 125.317C128.259 114.644 130.289 98.6006 123.675 85.8846L121.012 88.5478Z" fill="black"/>
<path fill-rule="evenodd" clip-rule="evenodd" d="M88.8959 96.9395C87.7009 98.1346 86.9283 99.5595 86.7921 100.921C86.6717 102.125 86.9924 103.759 88.9504 105.717C91.0213 107.788 92.796 108.307 94.105 108.276C95.4703 108.244 96.9152 107.597 98.2344 106.278L132.084 72.4279L122.746 63.0894L88.8959 96.9395ZM137.132 72.4279L100.758 108.802C97.1241 112.436 91.6544 113.469 86.4266 108.241C81.1988 103.013 83.1768 97.6111 86.3722 94.4157L122.746 58.0419L137.132 72.4279Z" fill="black"/>
</svg>
