<svg width="675" height="231" viewBox="0 0 675 231" fill="none" xmlns="http://www.w3.org/2000/svg">
<path fill-rule="evenodd" clip-rule="evenodd" d="M198.998 203.914L202.538 200.374L194.485 192.321L190.944 195.861L198.998 203.914ZM187.886 192.803L191.426 189.262L183.373 181.209L179.833 184.749L187.886 192.803ZM176.774 181.691L180.315 178.15L172.261 170.097L168.721 173.638L176.774 181.691ZM165.662 170.579L169.203 167.039L161.15 158.985L157.609 162.526L165.662 170.579ZM154.551 159.468L158.091 155.927L150.038 147.874L146.497 151.414L154.551 159.468ZM143.439 148.356L146.98 144.815L138.926 136.762L135.386 140.303L143.439 148.356ZM132.327 137.244L135.868 133.703L127.815 125.65L124.274 129.191L132.327 137.244ZM121.215 126.132L124.756 122.592L116.703 114.539L113.162 118.079L121.215 126.132ZM110.104 115.021L113.644 111.48L105.591 103.427L102.051 106.967L110.104 115.021ZM98.992 103.909L102.533 100.368L94.4794 92.3151L90.9388 95.8557L98.992 103.909ZM87.8803 92.7972L91.4209 89.2566L83.3677 81.2034L79.8271 84.744L87.8803 92.7972ZM76.7686 81.6855L80.3092 78.1449L72.256 70.0916L68.7154 73.6323L76.7686 81.6855ZM65.6569 70.5738L69.1975 67.0331L61.1446 58.9802L57.6039 62.5208L65.6569 70.5738ZM54.5454 59.4623L58.0861 55.9217L50.0331 47.8688L46.4925 51.4094L54.5454 59.4623ZM43.434 48.3509L46.9746 44.8103L46.9746 44.8102L43.434 48.3508L43.434 48.3509Z" fill="#BBBBBB"/>
<path fill-rule="evenodd" clip-rule="evenodd" d="M12.3527 124.078L12.3527 124.078L12.3527 127.705H12.3527L12.3527 124.078ZM16.678 127.705L28.067 127.705V124.078L16.678 124.078L16.678 127.705ZM32.3924 124.078V127.705L43.7814 127.705L43.7814 124.078L32.3924 124.078ZM48.1067 124.078V127.705L59.4957 127.705L59.4957 124.078L48.1067 124.078ZM63.8211 124.078V127.705L75.21 127.705V124.078L63.8211 124.078ZM79.5354 124.078V127.705L90.9244 127.705L90.9244 124.078L79.5354 124.078ZM95.2498 124.078V127.705L106.639 127.705V124.078L95.2498 124.078ZM110.964 124.078V127.705L122.353 127.705V124.079L110.964 124.078ZM126.678 124.079V127.705L138.067 127.705L138.067 124.079L126.678 124.079ZM142.393 124.079V127.705L153.782 127.705V124.079L142.393 124.079ZM158.107 124.079V127.705L169.496 127.705V124.079L158.107 124.079ZM173.821 124.079V127.705L185.21 127.705V124.079L173.821 124.079ZM189.536 124.079V127.705L200.925 127.705V124.079L189.536 124.079ZM205.25 124.079V127.705L216.639 127.705V124.079L205.25 124.079ZM220.964 124.079V127.705L232.353 127.705V124.079L220.964 124.079Z" fill="#BBBBBB"/>
<path d="M144.988 87.2895L147 85.2779L144.426 84.0659C138.406 81.2315 131.687 79.6471 124.613 79.6471C98.998 79.6471 78.0734 100.411 78.0734 126.043C78.0734 151.675 98.998 172.438 124.613 172.438C150.228 172.438 171.153 151.675 171.153 126.043C171.153 119.027 169.584 112.371 166.778 106.406L165.566 103.831L163.554 105.843L135.694 133.703L136.951 134.96L135.694 133.703C132.013 137.384 128.162 138.798 124.743 138.798C121.298 138.798 118.121 137.363 115.797 135.04C113.474 132.716 112.039 129.539 112.039 126.094C112.039 122.675 113.453 118.824 117.134 115.143L144.988 87.2895Z" fill="#A4FCBC" stroke="black" stroke-width="4"/>
<path d="M167.394 102.413L166.371 103.435L167.022 104.727C170.249 111.134 172.067 118.373 172.067 126.043C172.067 152.25 150.821 173.496 124.613 173.496C98.4053 173.496 77.1596 152.25 77.1596 126.043C77.1596 99.8347 98.4053 78.589 124.613 78.589C132.283 78.589 139.522 80.4071 145.929 83.6339L147.22 84.2844L148.243 83.2619L153.661 77.8434L155.532 75.9724L153.222 74.6828C144.753 69.9556 134.995 67.2626 124.613 67.2626C92.1498 67.2626 65.8331 93.5793 65.8331 126.043C65.8331 158.506 92.1498 184.823 124.613 184.823C157.076 184.823 183.393 158.506 183.393 126.043C183.393 115.661 180.7 105.903 175.973 97.4337L174.683 95.1233L172.812 96.9943L167.394 102.413Z" fill="#34F76B" stroke="black" stroke-width="4"/>
<path d="M182.807 85.3297L184.221 83.9155L182.807 82.5013L168.154 67.8484L166.74 66.4341L165.326 67.8484L117.704 115.47L119.118 116.885L117.704 115.47C114.627 118.547 113.226 122.017 113.226 125.356C113.226 128.668 114.607 131.686 116.788 133.867C118.97 136.049 121.987 137.43 125.3 137.43C128.639 137.43 132.109 136.028 135.185 132.952L182.807 85.3297ZM121.118 126.043C121.118 124.112 122.683 122.548 124.613 122.548C126.543 122.548 128.108 124.112 128.108 126.043C128.108 127.973 126.543 129.537 124.613 129.537C122.683 129.537 121.118 127.973 121.118 126.043Z" fill="#34F76B" stroke="black" stroke-width="4"/>
<path d="M180.539 78.5633L181.953 79.9776L183.368 78.5633L188.768 73.1629C196.769 75.1206 205.576 72.9761 211.832 66.7204C221.357 57.1959 221.357 41.7536 211.832 32.2291C203.215 23.612 189.758 22.7919 180.217 29.7646C179.21 30.5001 178.248 31.3218 177.341 32.2291L175.927 33.6433L177.341 35.0575L184.875 42.5913L186.289 44.0055L187.703 42.5913C191.505 38.7897 197.668 38.7897 201.47 42.5913C205.272 46.3929 205.272 52.5566 201.47 56.3582C197.865 59.9632 192.134 60.1498 188.311 56.9172L187.727 56.3338L186.325 54.9315L184.911 56.3219L172.93 68.1022L171.492 69.5164L172.918 70.9425L180.539 78.5633Z" fill="#34F76B" stroke="black" stroke-width="4"/>
<path d="M272.353 45.1071H289.543C295.423 45.1071 300.043 45.9171 303.403 47.5371C306.763 49.0971 309.133 51.5271 310.513 54.8271C311.953 58.0671 312.673 62.3871 312.673 67.7871V94.3371C312.673 99.8571 311.953 104.327 310.513 107.747C309.133 111.167 306.793 113.747 303.493 115.487C300.193 117.167 295.723 118.007 290.083 118.007H272.353V45.1071ZM289.723 108.737C292.663 108.737 294.793 108.227 296.113 107.207C297.433 106.187 298.273 104.777 298.633 102.977C298.993 101.117 299.173 98.3871 299.173 94.7871V66.8871C299.173 63.6471 298.963 61.1871 298.543 59.5071C298.123 57.8271 297.223 56.5971 295.843 55.8171C294.523 54.9771 292.423 54.5571 289.543 54.5571H285.583V108.737H289.723Z" fill="#34F66B"/>
<path d="M322.45 45.1071H340C347.68 45.1071 353.41 46.5771 357.19 49.5171C360.97 52.3971 362.86 57.3771 362.86 64.4571C362.86 69.0771 362.17 72.8571 360.79 75.7971C359.47 78.6771 357.16 80.7771 353.86 82.0971L364.03 118.007H350.71L341.98 84.6171H335.68V118.007H322.45V45.1071ZM339.91 76.3371C343.69 76.3371 346.36 75.4671 347.92 73.7271C349.54 71.9871 350.35 69.1371 350.35 65.1771C350.35 61.3371 349.63 58.5471 348.19 56.8071C346.81 55.0671 344.29 54.1971 340.63 54.1971H335.68V76.3371H339.91Z" fill="#34F66B"/>
<path d="M392.438 118.997C384.878 118.997 379.478 116.987 376.238 112.967C372.998 108.887 371.378 102.947 371.378 95.1471V67.7871C371.378 60.0471 372.998 54.1971 376.238 50.2371C379.478 46.2771 384.878 44.2971 392.438 44.2971C399.938 44.2971 405.308 46.2771 408.548 50.2371C411.788 54.1971 413.408 60.0471 413.408 67.7871V95.1471C413.408 102.887 411.758 108.797 408.458 112.877C405.218 116.957 399.878 118.997 392.438 118.997ZM392.438 109.187C395.378 109.187 397.358 108.257 398.378 106.397C399.398 104.537 399.908 101.837 399.908 98.2971V64.7271C399.908 61.1871 399.398 58.5171 398.378 56.7171C397.418 54.9171 395.438 54.0171 392.438 54.0171C389.438 54.0171 387.428 54.9471 386.408 56.8071C385.388 58.6071 384.878 61.2471 384.878 64.7271V98.2971C384.878 101.837 385.388 104.537 386.408 106.397C387.428 108.257 389.438 109.187 392.438 109.187Z" fill="#34F66B"/>
<path d="M441.621 118.997C435.021 118.997 430.071 117.137 426.771 113.417C423.531 109.697 421.761 104.147 421.461 96.7671L432.891 94.5171C433.071 99.1371 433.791 102.677 435.051 105.137C436.371 107.537 438.411 108.737 441.171 108.737C443.211 108.737 444.711 108.137 445.671 106.937C446.691 105.677 447.201 103.997 447.201 101.897C447.201 99.0171 446.541 96.5871 445.221 94.6071C443.961 92.5671 441.951 90.3471 439.191 87.9471L430.011 79.9371C427.191 77.5371 425.061 74.9571 423.621 72.1971C422.241 69.4371 421.551 66.1371 421.551 62.2971C421.551 56.5971 423.201 52.1871 426.501 49.0671C429.861 45.8871 434.481 44.2971 440.361 44.2971C446.661 44.2971 451.161 46.0971 453.861 49.6971C456.621 53.2371 458.211 58.0371 458.631 64.0971L447.201 66.0771C447.021 62.1171 446.451 59.1471 445.491 57.1671C444.591 55.1271 442.791 54.1071 440.091 54.1071C438.171 54.1071 436.671 54.7671 435.591 56.0871C434.511 57.3471 433.971 58.9671 433.971 60.9471C433.971 63.2871 434.421 65.2671 435.321 66.8871C436.281 68.4471 437.811 70.1271 439.911 71.9271L449.001 79.9371C452.421 82.8771 455.091 86.0271 457.011 89.3871C458.931 92.7471 459.891 96.6471 459.891 101.087C459.891 104.567 459.111 107.657 457.551 110.357C456.051 113.057 453.921 115.187 451.161 116.747C448.401 118.247 445.221 118.997 441.621 118.997Z" fill="#34F66B"/>
<path d="M485.39 118.997C478.79 118.997 473.84 117.137 470.54 113.417C467.3 109.697 465.53 104.147 465.23 96.7671L476.66 94.5171C476.84 99.1371 477.56 102.677 478.82 105.137C480.14 107.537 482.18 108.737 484.94 108.737C486.98 108.737 488.48 108.137 489.44 106.937C490.46 105.677 490.97 103.997 490.97 101.897C490.97 99.0171 490.31 96.5871 488.99 94.6071C487.73 92.5671 485.72 90.3471 482.96 87.9471L473.78 79.9371C470.96 77.5371 468.83 74.9571 467.39 72.1971C466.01 69.4371 465.32 66.1371 465.32 62.2971C465.32 56.5971 466.97 52.1871 470.27 49.0671C473.63 45.8871 478.25 44.2971 484.13 44.2971C490.43 44.2971 494.93 46.0971 497.63 49.6971C500.39 53.2371 501.98 58.0371 502.4 64.0971L490.97 66.0771C490.79 62.1171 490.22 59.1471 489.26 57.1671C488.36 55.1271 486.56 54.1071 483.86 54.1071C481.94 54.1071 480.44 54.7671 479.36 56.0871C478.28 57.3471 477.74 58.9671 477.74 60.9471C477.74 63.2871 478.19 65.2671 479.09 66.8871C480.05 68.4471 481.58 70.1271 483.68 71.9271L492.77 79.9371C496.19 82.8771 498.86 86.0271 500.78 89.3871C502.7 92.7471 503.66 96.6471 503.66 101.087C503.66 104.567 502.88 107.657 501.32 110.357C499.82 113.057 497.69 115.187 494.93 116.747C492.17 118.247 488.99 118.997 485.39 118.997Z" fill="#34F66B"/>
<path d="M511.503 45.1071H542.103V54.4671H524.733V75.4371H538.413V84.7071H524.733V108.917H542.283V118.007H511.503V45.1071Z" fill="#34F66B"/>
<path d="M272.353 135.806H279.633C282.732 135.806 284.926 136.683 286.214 138.437C287.503 140.164 288.148 142.532 288.148 145.54V159.577C288.148 162.752 287.517 165.23 286.256 167.013C285.022 168.767 282.883 169.645 279.839 169.645H272.353V135.806ZM279.715 167.848C281.416 167.848 282.718 167.486 283.623 166.762C284.528 166.01 285.131 165.021 285.433 163.796C285.735 162.571 285.885 161.08 285.885 159.326V145.707C285.885 143.005 285.433 140.986 284.528 139.649C283.651 138.312 282.019 137.644 279.633 137.644H274.574V167.848H279.715Z" fill="black"/>
<path d="M299.032 158.825L291.34 135.806H293.643L300.183 156.109L306.395 135.806H308.698L301.253 158.825V169.645H299.032V158.825Z" fill="black"/>
<path d="M312.602 135.806H314.371L325.683 164.381V135.806H327.657V169.645H325.888L314.577 141.028V169.645H312.602V135.806Z" fill="black"/>
<path d="M338.995 135.806H341.587L348.621 169.645H346.358L344.631 160.287H335.993L334.224 169.645H332.003L338.995 135.806ZM344.343 158.616L340.312 138.563L336.322 158.616H344.343Z" fill="black"/>
<path d="M353.588 135.806H355.81L362.843 166.344L370.001 135.806H372.304L373.25 169.645H371.317L370.494 141.278L363.707 169.645H362.062L355.357 141.32L354.534 169.645H352.601L353.588 135.806Z" fill="black"/>
<path d="M379.043 135.806H381.264V169.645H379.043V135.806Z" fill="black"/>
<path d="M394.882 170.104C391.838 170.104 389.726 169.213 388.547 167.431C387.368 165.62 386.779 163.114 386.779 159.911V145.54C386.779 142.337 387.382 139.858 388.588 138.103C389.795 136.321 391.893 135.43 394.882 135.43C397.651 135.43 399.612 136.251 400.764 137.894C401.916 139.51 402.492 141.863 402.492 144.955V146.668H400.353V144.955C400.353 142.365 399.955 140.443 399.16 139.189C398.364 137.936 396.939 137.31 394.882 137.31C392.633 137.31 391.098 137.978 390.275 139.315C389.452 140.652 389.041 142.643 389.041 145.289V160.245C389.041 162.919 389.466 164.924 390.316 166.261C391.166 167.57 392.688 168.224 394.882 168.224C396.966 168.224 398.392 167.584 399.16 166.303C399.955 164.994 400.353 163.072 400.353 160.537V158.49H402.492V160.161C402.492 163.336 401.929 165.787 400.805 167.514C399.681 169.241 397.706 170.104 394.882 170.104Z" fill="black"/>
<path d="M412.598 170.438V167.055C413.613 167.055 414.436 166.985 415.066 166.846C415.697 166.706 416.177 166.456 416.506 166.094C416.863 165.732 417.109 165.216 417.247 164.548C417.384 163.852 417.452 162.974 417.452 161.916V135.806H422.059V162C422.059 163.949 421.853 165.551 421.442 166.804C421.031 168.029 420.304 168.948 419.262 169.561C418.22 170.146 416.739 170.438 414.82 170.438H412.598Z" fill="black"/>
<path d="M435.131 170.021C433.211 170.021 431.607 169.603 430.318 168.767C429.057 167.932 428.097 166.776 427.439 165.3C426.78 163.824 426.397 162.111 426.287 160.161L430.4 159.033C430.482 160.231 430.661 161.387 430.935 162.501C431.237 163.615 431.716 164.534 432.375 165.258C433.033 165.954 433.951 166.303 435.131 166.303C436.337 166.303 437.242 165.968 437.845 165.3C438.476 164.604 438.791 163.615 438.791 162.334C438.791 160.802 438.449 159.577 437.763 158.657C437.078 157.71 436.214 156.764 435.172 155.817L429.578 150.803C428.481 149.829 427.672 148.77 427.151 147.628C426.63 146.459 426.369 145.024 426.369 143.325C426.369 140.847 427.068 138.925 428.467 137.56C429.865 136.195 431.771 135.513 434.184 135.513C435.501 135.513 436.652 135.694 437.64 136.056C438.654 136.39 439.491 136.92 440.149 137.644C440.834 138.368 441.369 139.287 441.753 140.401C442.164 141.487 442.439 142.768 442.576 144.244L438.627 145.331C438.545 144.217 438.38 143.2 438.133 142.281C437.886 141.334 437.448 140.582 436.817 140.025C436.214 139.44 435.336 139.148 434.184 139.148C433.033 139.148 432.128 139.468 431.47 140.109C430.839 140.721 430.524 141.64 430.524 142.866C430.524 143.896 430.688 144.746 431.017 145.414C431.374 146.083 431.936 146.765 432.704 147.461L438.339 152.474C439.6 153.589 440.711 154.925 441.671 156.485C442.631 158.017 443.11 159.841 443.11 161.958C443.11 163.629 442.768 165.077 442.082 166.303C441.397 167.5 440.45 168.419 439.244 169.06C438.065 169.7 436.694 170.021 435.131 170.021Z" fill="black"/>
<path d="M456.033 169.645L456.65 135.806H461.216L467.098 163.253L473.021 135.806H477.546L478.163 169.645H474.42L474.05 145.08L468.415 169.645H465.782L460.188 145.08L459.818 169.645H456.033Z" fill="black"/>
<path d="M491.785 170.021C489.536 170.021 487.74 169.575 486.396 168.684C485.053 167.793 484.093 166.525 483.517 164.882C482.941 163.211 482.653 161.262 482.653 159.033V146.208C482.653 143.98 482.941 142.072 483.517 140.485C484.12 138.869 485.08 137.644 486.396 136.808C487.74 135.945 489.536 135.513 491.785 135.513C494.033 135.513 495.816 135.945 497.132 136.808C498.448 137.672 499.394 138.897 499.97 140.485C500.574 142.072 500.875 143.98 500.875 146.208V159.075C500.875 161.275 500.574 163.197 499.97 164.84C499.394 166.484 498.448 167.765 497.132 168.684C495.816 169.575 494.033 170.021 491.785 170.021ZM491.785 166.303C493.019 166.303 493.951 166.052 494.582 165.551C495.213 165.021 495.638 164.297 495.857 163.378C496.076 162.431 496.186 161.331 496.186 160.078V145.247C496.186 143.994 496.076 142.922 495.857 142.03C495.638 141.111 495.213 140.415 494.582 139.941C493.951 139.44 493.019 139.189 491.785 139.189C490.551 139.189 489.605 139.44 488.947 139.941C488.316 140.415 487.891 141.111 487.671 142.03C487.452 142.922 487.342 143.994 487.342 145.247V160.078C487.342 161.331 487.452 162.431 487.671 163.378C487.891 164.297 488.316 165.021 488.947 165.551C489.605 166.052 490.551 166.303 491.785 166.303Z" fill="black"/>
<path d="M513.794 170.021C511.435 170.021 509.598 169.519 508.282 168.517C506.993 167.514 506.088 166.163 505.567 164.464C505.073 162.765 504.827 160.872 504.827 158.783V146.835C504.827 144.551 505.073 142.559 505.567 140.861C506.088 139.162 506.993 137.853 508.282 136.934C509.598 135.987 511.435 135.513 513.794 135.513C515.878 135.513 517.523 135.903 518.73 136.683C519.964 137.463 520.841 138.577 521.362 140.025C521.911 141.473 522.185 143.214 522.185 145.247V147.921H517.784V145.54C517.784 144.286 517.715 143.186 517.578 142.239C517.468 141.264 517.139 140.512 516.591 139.983C516.042 139.454 515.124 139.189 513.835 139.189C512.519 139.189 511.559 139.482 510.955 140.067C510.352 140.624 509.955 141.431 509.763 142.49C509.598 143.52 509.516 144.732 509.516 146.124V159.535C509.516 161.234 509.653 162.584 509.927 163.587C510.201 164.562 510.654 165.258 511.285 165.676C511.915 166.094 512.765 166.303 513.835 166.303C515.096 166.303 516.001 166.024 516.55 165.467C517.098 164.882 517.441 164.088 517.578 163.086C517.715 162.083 517.784 160.913 517.784 159.577V157.07H522.185V159.577C522.185 161.637 521.938 163.462 521.444 165.049C520.951 166.609 520.101 167.834 518.894 168.726C517.688 169.589 515.987 170.021 513.794 170.021Z" fill="black"/>
<path d="M526.613 169.645V135.806H531.261V151.764L538.912 135.806H543.231L536.649 150.72L544.3 169.645H539.776L533.4 153.77L531.261 157.697V169.645H526.613Z" fill="black"/>
<path d="M561.929 170.062C557.02 170.062 554.346 167.138 553.908 161.289L555.841 160.663C556.17 163.169 556.76 165.049 557.61 166.303C558.487 167.556 559.941 168.183 561.97 168.183C565.507 168.183 567.276 166.372 567.276 162.752C567.276 161.359 566.933 160.092 566.248 158.95C565.562 157.808 564.465 156.471 562.957 154.939L556.869 148.798C554.922 146.821 553.949 144.676 553.949 142.365C553.949 140.164 554.607 138.465 555.923 137.268C557.267 136.042 559.049 135.43 561.271 135.43C563.656 135.43 565.494 136.084 566.782 137.393C568.071 138.674 568.812 140.847 569.004 143.91L567.112 144.37C566.92 141.891 566.385 140.095 565.507 138.981C564.657 137.839 563.259 137.268 561.312 137.268C559.721 137.268 558.432 137.686 557.445 138.521C556.485 139.329 556.006 140.554 556.006 142.197C556.006 143.089 556.184 143.952 556.54 144.788C556.924 145.595 557.555 146.445 558.432 147.336L564.438 153.352C565.974 154.884 567.18 156.401 568.058 157.905C568.935 159.409 569.374 160.983 569.374 162.626C569.374 165.077 568.702 166.929 567.358 168.183C566.015 169.436 564.205 170.062 561.929 170.062Z" fill="black"/>
<path d="M573.822 135.806H585.34V137.644H576.085V151.221H583.694V152.976H576.085V167.848H585.463V169.645H573.822V135.806Z" fill="black"/>
<path d="M590.012 135.806H598.074C600.816 135.806 602.722 136.544 603.791 138.02C604.861 139.496 605.395 141.543 605.395 144.161C605.395 146.361 605.039 148.171 604.326 149.592C603.64 151.012 602.365 151.876 600.501 152.182L605.848 169.645H603.627L598.444 152.6H592.233V169.645H590.012V135.806ZM597.991 150.845C599.993 150.845 601.364 150.302 602.105 149.216C602.845 148.102 603.215 146.417 603.215 144.161C603.215 141.877 602.832 140.22 602.064 139.189C601.323 138.131 599.952 137.602 597.95 137.602H592.233V150.845H597.991Z" fill="black"/>
<path d="M608.802 135.806H611.023L617.933 165.676L624.391 135.806H626.571L618.962 169.645H616.864L608.802 135.806Z" fill="black"/>
<path d="M630.622 135.806H642.139V137.644H632.884V151.221H640.494V152.976H632.884V167.848H642.263V169.645H630.622V135.806Z" fill="black"/>
<path d="M646.811 135.806H654.873C657.615 135.806 659.521 136.544 660.591 138.02C661.66 139.496 662.195 141.543 662.195 144.161C662.195 146.361 661.838 148.171 661.125 149.592C660.44 151.012 659.165 151.876 657.3 152.182L662.647 169.645H660.426L655.243 152.6H649.032V169.645H646.811V135.806ZM654.791 150.845C656.793 150.845 658.164 150.302 658.904 149.216C659.645 148.102 660.015 146.417 660.015 144.161C660.015 141.877 659.631 140.22 658.863 139.189C658.123 138.131 656.752 137.602 654.75 137.602H649.032V150.845H654.791Z" fill="black"/>
</svg>
