<svg width="157" height="144" viewBox="0 0 157 144" fill="none" xmlns="http://www.w3.org/2000/svg">
<path fill-rule="evenodd" clip-rule="evenodd" d="M117.398 120.608L119.346 118.66L114.916 114.23L112.968 116.178L117.398 120.608ZM111.286 114.496L113.233 112.548L108.803 108.118L106.855 110.065L111.286 114.496ZM105.173 108.383L107.121 106.435L102.691 102.005L100.743 103.953L105.173 108.383ZM99.0603 102.27L101.008 100.323L96.5779 95.8924L94.6301 97.8401L99.0603 102.27ZM92.9476 96.1576L94.8954 94.2099L90.4652 89.7797L88.5175 91.7275L92.9476 96.1576ZM86.835 90.0449L88.7827 88.0972L84.3526 83.6671L82.4048 85.6148L86.835 90.0449ZM80.7223 83.9323L82.6701 81.9846L78.2399 77.5544L76.2922 79.5021L80.7223 83.9323ZM74.6097 77.8196L76.5574 75.8719L72.1273 71.4418L70.1795 73.3895L74.6097 77.8196ZM68.497 71.707L70.4448 69.7593L66.0146 65.3291L64.0669 67.2768L68.497 71.707ZM62.3844 65.5943L64.3321 63.6466L59.902 59.2165L57.9542 61.1642L62.3844 65.5943ZM56.2717 59.4817L58.2194 57.534L53.7893 53.1038L51.8416 55.0515L56.2717 59.4817ZM50.1591 53.369L52.1068 51.4213L47.6767 46.9912L45.7289 48.9389L50.1591 53.369ZM44.0464 47.2564L45.9941 45.3086L41.5641 40.8786L39.6164 42.8264L44.0464 47.2564ZM37.9339 41.1439L39.8816 39.1961L35.4517 34.7662L33.5039 36.7139L37.9339 41.1439ZM31.8214 35.0314L33.7692 33.0836L33.7691 33.0836L31.8214 35.0314L31.8214 35.0314Z" fill="#BBBBBB"/>
<path fill-rule="evenodd" clip-rule="evenodd" d="M14.7233 76.6898L14.7233 76.6898L14.7233 78.6848H14.7233L14.7233 76.6898ZM17.1027 78.6848L23.3679 78.6848L23.3679 76.6898L17.1027 76.6898V78.6848ZM25.7473 76.6898V78.6848L32.0125 78.6848V76.6898L25.7473 76.6898ZM34.3919 76.6898L34.3919 78.6848L40.6571 78.6848L40.6571 76.6898L34.3919 76.6898ZM43.0365 76.6898L43.0365 78.6848L49.3017 78.6848V76.6898L43.0365 76.6898ZM51.6811 76.6898V78.6848L57.9463 78.6848L57.9463 76.6898L51.6811 76.6898ZM60.3257 76.6898L60.3257 78.6848L66.5909 78.6848V76.6898L60.3257 76.6898ZM68.9703 76.6898V78.6848L75.2355 78.6848V76.6898L68.9703 76.6898ZM77.6149 76.6898V78.6848L83.8801 78.6848V76.6898L77.6149 76.6898ZM86.2595 76.6898V78.6848L92.5247 78.6848V76.6898L86.2595 76.6898ZM94.9041 76.6898V78.6848L101.169 78.6848V76.6898L94.9041 76.6898ZM103.549 76.6898V78.6848L109.814 78.6848V76.6898L103.549 76.6898ZM112.193 76.6898V78.6848L118.458 78.6848V76.6898L112.193 76.6898ZM120.838 76.6898V78.6848L127.103 78.6848V76.6898L120.838 76.6898ZM129.482 76.6898V78.6848L135.747 78.6848V76.6898L129.482 76.6898Z" fill="#BBBBBB"/>
<path d="M87.6163 56.381L88.6221 55.3752L87.3352 54.7692C84.037 53.2161 80.355 52.3479 76.4788 52.3479C62.4426 52.3479 50.9771 63.7257 50.9771 77.7704C50.9771 91.815 62.4426 103.193 76.4788 103.193C90.515 103.193 101.981 91.815 101.981 77.7704C101.981 73.9262 101.121 70.2791 99.5831 67.0106L98.9774 65.7229L97.9712 66.7291L82.6452 82.0551L83.1595 82.5693L82.6452 82.0551C80.6038 84.0965 78.4605 84.8875 76.5502 84.8875C74.6267 84.8875 72.8541 84.0863 71.5583 82.7905C70.2625 81.4947 69.4613 79.7221 69.4613 77.7985C69.4613 75.8883 70.2523 73.7449 72.2937 71.7036L87.6163 56.381Z" fill="#A4FCBC" stroke="black" stroke-width="2"/>
<path d="M100.084 64.8423L99.5725 65.3535L99.8977 65.9992C101.68 69.5373 102.684 73.5351 102.684 77.7703C102.684 92.2429 90.9514 103.975 76.4788 103.975C62.0063 103.975 50.274 92.2429 50.274 77.7703C50.274 63.2978 62.0063 51.5655 76.4788 51.5655C80.714 51.5655 84.7118 52.5695 88.2499 54.3515L88.8957 54.6767L89.4069 54.1655L92.3877 51.1847L93.3232 50.2492L92.168 49.6044C87.5237 47.012 82.1722 45.5352 76.4788 45.5352C58.6758 45.5352 44.2437 59.9673 44.2437 77.7703C44.2437 95.5733 58.6758 110.006 76.4788 110.006C94.2818 110.006 108.714 95.5733 108.714 77.7703C108.714 72.0769 107.237 66.7254 104.645 62.0812L104 60.926L103.064 61.8615L100.084 64.8423Z" fill="#34F76B" stroke="black" stroke-width="2"/>
<path d="M108.421 55.303L109.128 54.5958L108.421 53.8887L100.36 45.8281L99.6533 45.1209L98.9462 45.828L72.749 72.0253L73.396 72.6724L72.749 72.0253C71.0729 73.7014 70.3149 75.5853 70.3149 77.3925C70.3149 79.1865 71.0627 80.8215 72.2452 82.004C73.4277 83.1865 75.0627 83.9342 76.8567 83.9342C78.6639 83.9342 80.5478 83.1763 82.2239 81.5002L108.421 55.303ZM74.4561 77.7703C74.4561 76.6532 75.3617 75.7476 76.4788 75.7476C77.596 75.7476 78.5016 76.6532 78.5016 77.7703C78.5016 78.8875 77.596 79.7931 76.4788 79.7931C75.3617 79.7931 74.4561 78.8875 74.4561 77.7703Z" fill="#34F76B" stroke="black" stroke-width="2"/>
<path d="M107.315 51.5807L108.022 52.2878L108.729 51.5807L111.74 48.5699C116.124 49.6621 120.958 48.4956 124.388 45.0658C129.588 39.8654 129.588 31.4339 124.388 26.2335C119.683 21.5287 112.335 21.0808 107.126 24.8878C106.576 25.2894 106.051 25.7381 105.556 26.2335L104.849 26.9406L105.556 27.6478L109.7 31.7922L110.407 32.4993L111.114 31.7921C113.245 29.6617 116.699 29.6617 118.829 31.7921C120.96 33.9226 120.96 37.3767 118.829 39.5072C116.808 41.5285 113.594 41.6321 111.452 39.8176L111.128 39.4938L110.426 38.7926L109.719 39.4878L103.129 45.9683L102.41 46.6753L103.123 47.3884L107.315 51.5807Z" fill="#34F76B" stroke="black" stroke-width="2"/>
</svg>
