<svg width="24" height="24" viewBox="0 0 24 24" fill="none" xmlns="http://www.w3.org/2000/svg">
  <path
    d="M6.5 2.5C5.39 2.5 4.5 3.39 4.5 4.5V20.5C4.5 21.0304 4.71071 21.5391 5.08579 21.9142C5.46086 22.2893 5.96957 22.5 6.5 22.5H18.5C19.0304 22.5 19.5391 22.2893 19.9142 21.9142C20.2893 21.5391 20.5 21.0304 20.5 20.5V8.5L14.5 2.5H6.5ZM13.5 9.5V4L19 9.5H13.5ZM7.29653 18.6701C7.67382 19.4718 8.41897 20.1321 9.69233 20.1321C11.1072 20.1321 12.0787 19.3775 12.0787 17.7268V12.275H10.4752V17.6891C10.4752 18.5003 10.1451 18.7078 9.6263 18.7078C9.07923 18.7078 8.85285 18.3305 8.59818 17.8872L7.29653 18.6701ZM12.937 18.5003C13.4086 19.4247 14.3613 20.1321 15.8516 20.1321C17.3608 20.1321 18.4927 19.3492 18.4927 17.9061C18.4927 16.5761 17.7286 15.9819 16.3704 15.3971L15.9742 15.2273C15.2857 14.9349 14.9933 14.7368 14.9933 14.2652C14.9933 13.8785 15.2857 13.5766 15.7573 13.5766C16.21 13.5766 16.5119 13.7747 16.7854 14.2652L18.021 13.4446C17.5023 12.5391 16.7665 12.1901 15.7573 12.1901C14.333 12.1901 13.4181 13.0956 13.4181 14.2935C13.4181 15.5951 14.1821 16.2082 15.3328 16.6987L15.729 16.8685C16.4647 17.1892 16.8986 17.3873 16.8986 17.9344C16.8986 18.3871 16.4741 18.7172 15.8139 18.7172C15.031 18.7172 14.5783 18.3116 14.2387 17.7457L12.937 18.5003Z"
    fill-rule="evenodd"
    clip-rule="evenodd"
    fill="limegreen"
  />
</svg>