<svg width="128" height="128" viewBox="0 0 128 128" fill="none" xmlns="http://www.w3.org/2000/svg">
<g clip-path="url(#clip0_2152_2062)">
<path d="M111.044 15.9211C111.211 15.683 111.414 15.4629 111.65 15.2709L112.142 14.8711C113.265 13.958 114.941 14.2569 116.342 14.6078C117.195 14.8214 118.094 14.749 118.903 14.4015C119.712 14.054 120.385 13.4504 120.822 12.6824C121.259 11.9144 121.434 11.024 121.322 10.1464C121.21 9.26877 120.817 8.45192 120.201 7.81993C119.586 7.18793 118.782 6.77532 117.913 6.64476C117.043 6.51421 116.155 6.67285 115.383 7.09658C114.116 7.79249 112.569 8.50791 111.253 7.91015L110.677 7.64845C109.043 6.90615 108.286 4.92069 109.485 3.57866C110.278 2.6911 111.219 1.93884 112.274 1.3598C114.287 0.254691 116.603 -0.159043 118.871 0.181447C121.139 0.521937 123.234 1.59804 124.839 3.24631C126.444 4.89458 127.471 7.02493 127.763 9.31379C128.055 11.6026 127.597 13.9249 126.458 15.9279C125.319 17.9308 123.562 19.505 121.453 20.4113C119.817 21.1145 118.038 21.3858 116.284 21.2117C117.94 23.1335 117.861 26.0457 116.046 27.8724L74.2506 69.9336C70.4958 73.7123 64.4081 73.7123 60.6533 69.9336C56.8985 66.1549 56.8985 60.0284 60.6533 56.2497L102.448 14.1885C104.346 12.2782 107.424 12.2782 109.322 14.1885L111.044 15.9211Z" fill="#513D02"/>
<path d="M93.1608 17.4931C82.2297 11.2512 69.4248 9.19676 57.107 11.7084C50.3494 13.0863 43.9884 15.7875 38.3587 19.6016L38.2758 19.1837L34.5855 20.6736L34.8828 22.1733C33.6676 23.1528 32.4946 24.1884 31.3677 25.2775L30.7611 22.2177L27.0707 23.7077L28.0737 28.7675C27.4056 29.5438 26.7586 30.3416 26.134 31.1603C25.6699 31.7684 25.22 32.3856 24.7845 33.0112L23.2463 25.2518L19.3931 26.8075L21.6383 38.1336C20.5388 40.1777 19.578 42.2888 18.7604 44.4521L15.5687 28.3516L11.9633 29.8073L15.188 46.0744L18.6808 44.6642C16.1258 51.5131 15.0031 58.8788 15.4542 66.2949C16.2222 78.9195 21.4994 90.8391 30.313 99.8561C39.1265 108.873 50.8821 114.38 63.4124 115.36C75.187 116.282 86.8996 113.149 96.6443 106.514L108.53 112.239L109.559 108.374L100.199 103.865C101.344 102.934 102.446 101.957 103.503 100.937L110.626 104.368L111.655 100.503L106.361 97.9529C107.287 96.9062 108.17 95.8238 109.008 94.7084L112.721 96.4972L113.769 92.5614L111.313 91.3785C112.045 90.2304 112.731 89.0536 113.372 87.8506L114.836 88.5558L115.85 84.7452L115.065 84.3669C115.613 83.124 116.114 81.8578 116.566 80.5709L116.917 80.7396L118.354 74.3813L118.331 74.3521C118.332 74.3505 118.332 74.3489 118.332 74.3473C121.031 61.9941 119.2 49.0755 113.179 37.9734L104.431 46.4301C106.698 51.5167 107.958 57.1558 107.958 63.0913C107.958 85.6048 89.823 103.856 67.452 103.856C45.081 103.856 26.9457 85.6048 26.9457 63.0913C26.9457 40.5778 45.081 22.327 67.452 22.327C73.5869 22.327 79.4033 23.6995 84.6144 26.1561L93.1608 17.4931Z" fill="#513D02"/>
<path d="M66.7997 44.2136C56.7357 44.5595 48.6826 52.879 48.6826 63.0914C48.6826 73.5236 57.0859 81.9805 67.452 81.9805C77.496 81.9805 85.6974 74.0409 86.1974 64.058L75.6694 74.2359C72.9977 76.2311 69.6994 77.187 66.3825 76.9274C63.0657 76.6678 59.9539 75.2101 57.6208 72.8233C55.2879 70.4364 53.8909 67.2812 53.6876 63.9394C53.4843 60.5975 54.4884 57.2944 56.5146 54.6389L66.7997 44.2136Z" fill="#513D02"/>
<path d="M8.13897 31.3514L11.3637 47.6184L7.75855 49.074L4.53386 32.8069L8.13897 31.3514Z" fill="#513D02"/>
<path d="M0.7095 34.351L0.865123 35.136L0.573975 34.4057L0.7095 34.351Z" fill="#513D02"/>
<path d="M106.449 120.055L91.5815 112.894L92.5961 109.083L107.463 116.245L106.449 120.055Z" fill="#513D02"/>
<path d="M89.5004 120.71L104.368 127.871L105.382 124.061L90.515 116.899L89.5004 120.71Z" fill="#513D02"/>
<path d="M67.4519 22.3267C73.5868 22.3267 79.4032 23.6992 84.6143 26.1558L66.7998 44.2133C56.7357 44.5592 48.6826 52.8787 48.6826 63.0911C48.6826 73.5232 57.086 81.9801 67.4521 81.9801C77.4961 81.9801 85.6975 74.0406 86.1974 64.0576L104.431 46.4298C106.698 51.5164 107.958 57.1555 107.958 63.091C107.958 85.6045 89.8229 103.855 67.4519 103.855C45.0809 103.855 26.9456 85.6045 26.9456 63.091C26.9456 40.5775 45.0809 22.3267 67.4519 22.3267Z" fill="#FFE7A0"/>
</g>
<defs>
<clipPath id="clip0_2152_2062">
<rect width="128" height="128" fill="white"/>
</clipPath>
</defs>
</svg>
