<svg fill="none" height="231" viewBox="0 0 675 231" width="675" xmlns="http://www.w3.org/2000/svg"><path clip-rule="evenodd" d="m198.998 203.914 3.54-3.54-8.053-8.053-3.541 3.54zm-11.112-11.111 3.54-3.541-8.053-8.053-3.54 3.54zm-11.112-11.112 3.541-3.541-8.054-8.053-3.54 3.541zm-11.112-11.112 3.541-3.54-8.053-8.054-3.541 3.541zm-11.111-11.111 3.54-3.541-8.053-8.053-3.541 3.54zm-11.112-11.112 3.541-3.541-8.054-8.053-3.54 3.541zm-11.112-11.112 3.541-3.541-8.053-8.053-3.541 3.541zm-11.112-11.112 3.541-3.54-8.053-8.053-3.541 3.54zm-11.111-11.111 3.54-3.541-8.053-8.053-3.54 3.54zm-11.112-11.112 3.541-3.541-8.0536-8.0529-3.5406 3.5406zm-11.1117-11.1118 3.5406-3.5406-8.0532-8.0532-3.5406 3.5406zm-11.1117-11.1117 3.5406-3.5406-8.0532-8.0533-3.5406 3.5407zm-11.1117-11.1117 3.5406-3.5407-8.0529-8.0529-3.5407 3.5406zm-11.1115-11.1115 3.5407-3.5406-8.053-8.0529-3.5406 3.5406zm-11.1114-11.1114 3.5406-3.5406v-.0001l-3.5406 3.5406z" fill="#bbb" fill-rule="evenodd"/><path clip-rule="evenodd" d="m12.3527 124.078v3.627zm4.3253 3.627h11.389v-3.627h-11.389zm15.7144-3.627v3.627h11.389v-3.627zm15.7143 0v3.627h11.389v-3.627zm15.7144 0v3.627h11.3889v-3.627zm15.7143 0v3.627h11.389v-3.627zm15.7144 0v3.627h11.3892v-3.627zm15.7142 0v3.627h11.389v-3.626zm15.714.001v3.626h11.389v-3.626zm15.715 0v3.626h11.389v-3.626zm15.714 0v3.626h11.389v-3.626zm15.714 0v3.626h11.389v-3.626zm15.715 0v3.626h11.389v-3.626zm15.714 0v3.626h11.389v-3.626zm15.714 0v3.626h11.389v-3.626z" fill="#bbb" fill-rule="evenodd"/><path d="m144.988 87.2895 2.012-2.0116-2.574-1.212c-6.02-2.8344-12.739-4.4188-19.813-4.4188-25.615 0-46.5396 20.7639-46.5396 46.3959s20.9246 46.395 46.5396 46.395 46.54-20.763 46.54-46.395c0-7.016-1.569-13.672-4.375-19.637l-1.212-2.575-2.012 2.012-27.86 27.86 1.257 1.257-1.257-1.257c-3.681 3.681-7.532 5.095-10.951 5.095-3.445 0-6.622-1.435-8.946-3.758-2.323-2.324-3.758-5.501-3.758-8.946 0-3.419 1.414-7.27 5.095-10.951z" fill="#a4fcbc" stroke="#000" stroke-width="4"/><path d="m167.394 102.413-1.023 1.022.651 1.292c3.227 6.407 5.045 13.646 5.045 21.316 0 26.207-21.246 47.453-47.454 47.453-26.2077 0-47.4534-21.246-47.4534-47.453 0-26.2083 21.2457-47.454 47.4534-47.454 7.67 0 14.909 1.8181 21.316 5.0449l1.291.6505 1.023-1.0225 5.418-5.4185 1.871-1.871-2.31-1.2896c-8.469-4.7272-18.227-7.4202-28.609-7.4202-32.4632 0-58.7799 26.3167-58.7799 58.7804 0 32.463 26.3167 58.78 58.7799 58.78 32.463 0 58.78-26.317 58.78-58.78 0-10.382-2.693-20.14-7.42-28.6093l-1.29-2.3104-1.871 1.871z" fill="#34f76b" stroke="#000" stroke-width="4"/><path d="m182.807 85.3297 1.414-1.4142-1.414-1.4142-14.653-14.6529-1.414-1.4143-1.414 1.4143-47.622 47.6216 1.414 1.415-1.414-1.415c-3.077 3.077-4.478 6.547-4.478 9.886 0 3.312 1.381 6.33 3.562 8.511 2.182 2.182 5.199 3.563 8.512 3.563 3.339 0 6.809-1.402 9.885-4.478zm-61.689 40.7133c0-1.931 1.565-3.495 3.495-3.495s3.495 1.564 3.495 3.495c0 1.93-1.565 3.494-3.495 3.494s-3.495-1.564-3.495-3.494z" fill="#34f76b" stroke="#000" stroke-width="4"/><path d="m180.539 78.5633 1.414 1.4143 1.415-1.4143 5.4-5.4004c8.001 1.9577 16.808-.1868 23.064-6.4425 9.525-9.5245 9.525-24.9668 0-34.4913-8.617-8.6171-22.074-9.4372-31.615-2.4645-1.007.7355-1.969 1.5572-2.876 2.4645l-1.414 1.4142 1.414 1.4142 7.534 7.5338 1.414 1.4142 1.414-1.4142c3.802-3.8016 9.965-3.8016 13.767 0s3.802 9.9653 0 13.7669c-3.605 3.605-9.336 3.7916-13.159.559l-.584-.5834-1.402-1.4023-1.414 1.3904-11.981 11.7803-1.438 1.4142 1.426 1.4261z" fill="#34f76b" stroke="#000" stroke-width="4"/><path d="m272.353 45.1071h17.19c5.88 0 10.5.81 13.86 2.43 3.36 1.56 5.73 3.99 7.11 7.29 1.44 3.24 2.16 7.56 2.16 12.96v26.55c0 5.52-.72 9.9899-2.16 13.4099-1.38 3.42-3.72 6-7.02 7.74-3.3 1.68-7.77 2.52-13.41 2.52h-17.73zm17.37 63.6299c2.94 0 5.07-.51 6.39-1.53s2.16-2.43 2.52-4.23c.36-1.86.54-4.5899.54-8.1899v-27.9c0-3.24-.21-5.7-.63-7.38s-1.32-2.91-2.7-3.69c-1.32-.84-3.42-1.26-6.3-1.26h-3.96v54.1799z" fill="#34f66b"/><path d="m322.45 45.1071h17.55c7.68 0 13.41 1.47 17.19 4.41 3.78 2.88 5.67 7.86 5.67 14.94 0 4.62-.69 8.4-2.07 11.34-1.32 2.88-3.63 4.98-6.93 6.3l10.17 35.9099h-13.32l-8.73-33.3899h-6.3v33.3899h-13.23zm17.46 31.23c3.78 0 6.45-.87 8.01-2.61 1.62-1.74 2.43-4.59 2.43-8.55 0-3.84-.72-6.63-2.16-8.37-1.38-1.74-3.9-2.61-7.56-2.61h-4.95v22.14z" fill="#34f66b"/><path d="m392.438 118.997c-7.56 0-12.96-2.01-16.2-6.03-3.24-4.08-4.86-10.02-4.86-17.8199v-27.36c0-7.74 1.62-13.59 4.86-17.55s8.64-5.94 16.2-5.94c7.5 0 12.87 1.98 16.11 5.94s4.86 9.81 4.86 17.55v27.36c0 7.7399-1.65 13.6499-4.95 17.7299-3.24 4.08-8.58 6.12-16.02 6.12zm0-9.81c2.94 0 4.92-.93 5.94-2.79s1.53-4.56 1.53-8.0999v-33.57c0-3.54-.51-6.21-1.53-8.01-.96-1.8-2.94-2.7-5.94-2.7s-5.01.93-6.03 2.79c-1.02 1.8-1.53 4.44-1.53 7.92v33.57c0 3.5399.51 6.2399 1.53 8.0999s3.03 2.79 6.03 2.79z" fill="#34f66b"/><path d="m441.621 118.997c-6.6 0-11.55-1.86-14.85-5.58-3.24-3.72-5.01-9.27-5.31-16.6499l11.43-2.25c.18 4.62.9 8.1599 2.16 10.6199 1.32 2.4 3.36 3.6 6.12 3.6 2.04 0 3.54-.6 4.5-1.8 1.02-1.26 1.53-2.94 1.53-5.04 0-2.8799-.66-5.3099-1.98-7.2899-1.26-2.04-3.27-4.26-6.03-6.66l-9.18-8.01c-2.82-2.4-4.95-4.98-6.39-7.74-1.38-2.76-2.07-6.06-2.07-9.9 0-5.7 1.65-10.11 4.95-13.23 3.36-3.18 7.98-4.77 13.86-4.77 6.3 0 10.8 1.8 13.5 5.4 2.76 3.54 4.35 8.34 4.77 14.4l-11.43 1.98c-.18-3.96-.75-6.93-1.71-8.91-.9-2.04-2.7-3.06-5.4-3.06-1.92 0-3.42.66-4.5 1.98-1.08 1.26-1.62 2.88-1.62 4.86 0 2.34.45 4.32 1.35 5.94.96 1.56 2.49 3.24 4.59 5.04l9.09 8.01c3.42 2.94 6.09 6.09 8.01 9.45s2.88 7.26 2.88 11.6999c0 3.48-.78 6.57-2.34 9.27-1.5 2.7-3.63 4.83-6.39 6.39-2.76 1.5-5.94 2.25-9.54 2.25z" fill="#34f66b"/><path d="m485.39 118.997c-6.6 0-11.55-1.86-14.85-5.58-3.24-3.72-5.01-9.27-5.31-16.6499l11.43-2.25c.18 4.62.9 8.1599 2.16 10.6199 1.32 2.4 3.36 3.6 6.12 3.6 2.04 0 3.54-.6 4.5-1.8 1.02-1.26 1.53-2.94 1.53-5.04 0-2.8799-.66-5.3099-1.98-7.2899-1.26-2.04-3.27-4.26-6.03-6.66l-9.18-8.01c-2.82-2.4-4.95-4.98-6.39-7.74-1.38-2.76-2.07-6.06-2.07-9.9 0-5.7 1.65-10.11 4.95-13.23 3.36-3.18 7.98-4.77 13.86-4.77 6.3 0 10.8 1.8 13.5 5.4 2.76 3.54 4.35 8.34 4.77 14.4l-11.43 1.98c-.18-3.96-.75-6.93-1.71-8.91-.9-2.04-2.7-3.06-5.4-3.06-1.92 0-3.42.66-4.5 1.98-1.08 1.26-1.62 2.88-1.62 4.86 0 2.34.45 4.32 1.35 5.94.96 1.56 2.49 3.24 4.59 5.04l9.09 8.01c3.42 2.94 6.09 6.09 8.01 9.45s2.88 7.26 2.88 11.6999c0 3.48-.78 6.57-2.34 9.27-1.5 2.7-3.63 4.83-6.39 6.39-2.76 1.5-5.94 2.25-9.54 2.25z" fill="#34f66b"/><path d="m511.503 45.1071h30.6v9.36h-17.37v20.97h13.68v9.27h-13.68v24.2099h17.55v9.09h-30.78z" fill="#34f66b"/><g fill="#808080"><path d="m272.353 135.806h7.28c3.099 0 5.293.877 6.581 2.631 1.289 1.727 1.934 4.095 1.934 7.103v14.037c0 3.175-.631 5.653-1.892 7.436-1.234 1.754-3.373 2.632-6.417 2.632h-7.486zm7.362 32.042c1.701 0 3.003-.362 3.908-1.086.905-.752 1.508-1.741 1.81-2.966s.452-2.716.452-4.47v-13.619c0-2.702-.452-4.721-1.357-6.058-.877-1.337-2.509-2.005-4.895-2.005h-5.059v30.204z"/><path d="m299.032 158.825-7.692-23.019h2.303l6.54 20.303 6.212-20.303h2.303l-7.445 23.019v10.82h-2.221z"/><path d="m312.602 135.806h1.769l11.312 28.575v-28.575h1.974v33.839h-1.769l-11.311-28.617v28.617h-1.975z"/><path d="m338.995 135.806h2.592l7.034 33.839h-2.263l-1.727-9.358h-8.638l-1.769 9.358h-2.221zm5.348 22.81-4.031-20.053-3.99 20.053z"/><path d="m353.588 135.806h2.222l7.033 30.538 7.158-30.538h2.303l.946 33.839h-1.933l-.823-28.367-6.787 28.367h-1.645l-6.705-28.325-.823 28.325h-1.933z"/><path d="m379.043 135.806h2.221v33.839h-2.221z"/><path d="m394.882 170.104c-3.044 0-5.156-.891-6.335-2.673-1.179-1.811-1.768-4.317-1.768-7.52v-14.371c0-3.203.603-5.682 1.809-7.437 1.207-1.782 3.305-2.673 6.294-2.673 2.769 0 4.73.821 5.882 2.464 1.152 1.616 1.728 3.969 1.728 7.061v1.713h-2.139v-1.713c0-2.59-.398-4.512-1.193-5.766-.796-1.253-2.221-1.879-4.278-1.879-2.249 0-3.784.668-4.607 2.005s-1.234 3.328-1.234 5.974v14.956c0 2.674.425 4.679 1.275 6.016.85 1.309 2.372 1.963 4.566 1.963 2.084 0 3.51-.64 4.278-1.921.795-1.309 1.193-3.231 1.193-5.766v-2.047h2.139v1.671c0 3.175-.563 5.626-1.687 7.353s-3.099 2.59-5.923 2.59z"/><path d="m412.598 170.438v-3.383c1.015 0 1.838-.07 2.468-.209.631-.14 1.111-.39 1.44-.752.357-.362.603-.878.741-1.546.137-.696.205-1.574.205-2.632v-26.11h4.607v26.194c0 1.949-.206 3.551-.617 4.804-.411 1.225-1.138 2.144-2.18 2.757-1.042.585-2.523.877-4.442.877z"/><path d="m435.131 170.021c-1.92 0-3.524-.418-4.813-1.254-1.261-.835-2.221-1.991-2.879-3.467-.659-1.476-1.042-3.189-1.152-5.139l4.113-1.128c.082 1.198.261 2.354.535 3.468.302 1.114.781 2.033 1.44 2.757.658.696 1.576 1.045 2.756 1.045 1.206 0 2.111-.335 2.714-1.003.631-.696.946-1.685.946-2.966 0-1.532-.342-2.757-1.028-3.677-.685-.947-1.549-1.893-2.591-2.84l-5.594-5.014c-1.097-.974-1.906-2.033-2.427-3.175-.521-1.169-.782-2.604-.782-4.303 0-2.478.699-4.4 2.098-5.765 1.398-1.365 3.304-2.047 5.717-2.047 1.317 0 2.468.181 3.456.543 1.014.334 1.851.864 2.509 1.588.685.724 1.22 1.643 1.604 2.757.411 1.086.686 2.367.823 3.843l-3.949 1.087c-.082-1.114-.247-2.131-.494-3.05-.247-.947-.685-1.699-1.316-2.256-.603-.585-1.481-.877-2.633-.877-1.151 0-2.056.32-2.714.961-.631.612-.946 1.531-.946 2.757 0 1.03.164 1.88.493 2.548.357.669.919 1.351 1.687 2.047l5.635 5.013c1.261 1.115 2.372 2.451 3.332 4.011.96 1.532 1.439 3.356 1.439 5.473 0 1.671-.342 3.119-1.028 4.345-.685 1.197-1.632 2.116-2.838 2.757-1.179.64-2.55.961-4.113.961z"/><path d="m456.033 169.645.617-33.839h4.566l5.882 27.447 5.923-27.447h4.525l.617 33.839h-3.743l-.37-24.565-5.635 24.565h-2.633l-5.594-24.565-.37 24.565z"/><path d="m491.785 170.021c-2.249 0-4.045-.446-5.389-1.337-1.343-.891-2.303-2.159-2.879-3.802-.576-1.671-.864-3.62-.864-5.849v-12.825c0-2.228.288-4.136.864-5.723.603-1.616 1.563-2.841 2.879-3.677 1.344-.863 3.14-1.295 5.389-1.295 2.248 0 4.031.432 5.347 1.295 1.316.864 2.262 2.089 2.838 3.677.604 1.587.905 3.495.905 5.723v12.867c0 2.2-.301 4.122-.905 5.765-.576 1.644-1.522 2.925-2.838 3.844-1.316.891-3.099 1.337-5.347 1.337zm0-3.718c1.234 0 2.166-.251 2.797-.752.631-.53 1.056-1.254 1.275-2.173.219-.947.329-2.047.329-3.3v-14.831c0-1.253-.11-2.325-.329-3.217-.219-.919-.644-1.615-1.275-2.089-.631-.501-1.563-.752-2.797-.752s-2.18.251-2.838.752c-.631.474-1.056 1.17-1.276 2.089-.219.892-.329 1.964-.329 3.217v14.831c0 1.253.11 2.353.329 3.3.22.919.645 1.643 1.276 2.173.658.501 1.604.752 2.838.752z"/><path d="m513.794 170.021c-2.359 0-4.196-.502-5.512-1.504-1.289-1.003-2.194-2.354-2.715-4.053-.494-1.699-.74-3.592-.74-5.681v-11.948c0-2.284.246-4.276.74-5.974.521-1.699 1.426-3.008 2.715-3.927 1.316-.947 3.153-1.421 5.512-1.421 2.084 0 3.729.39 4.936 1.17 1.234.78 2.111 1.894 2.632 3.342.549 1.448.823 3.189.823 5.222v2.674h-4.401v-2.381c0-1.254-.069-2.354-.206-3.301-.11-.975-.439-1.727-.987-2.256-.549-.529-1.467-.794-2.756-.794-1.316 0-2.276.293-2.88.878-.603.557-1 1.364-1.192 2.423-.165 1.03-.247 2.242-.247 3.634v13.411c0 1.699.137 3.049.411 4.052.274.975.727 1.671 1.358 2.089.63.418 1.48.627 2.55.627 1.261 0 2.166-.279 2.715-.836.548-.585.891-1.379 1.028-2.381.137-1.003.206-2.173.206-3.509v-2.507h4.401v2.507c0 2.06-.247 3.885-.741 5.472-.493 1.56-1.343 2.785-2.55 3.677-1.206.863-2.907 1.295-5.1 1.295z"/><path d="m526.613 169.645v-33.839h4.648v15.958l7.651-15.958h4.319l-6.582 14.914 7.651 18.925h-4.524l-6.376-15.875-2.139 3.927v11.948z"/><path d="m561.929 170.062c-4.909 0-7.583-2.924-8.021-8.773l1.933-.626c.329 2.506.919 4.386 1.769 5.64.877 1.253 2.331 1.88 4.36 1.88 3.537 0 5.306-1.811 5.306-5.431 0-1.393-.343-2.66-1.028-3.802-.686-1.142-1.783-2.479-3.291-4.011l-6.088-6.141c-1.947-1.977-2.92-4.122-2.92-6.433 0-2.201.658-3.9 1.974-5.097 1.344-1.226 3.126-1.838 5.348-1.838 2.385 0 4.223.654 5.511 1.963 1.289 1.281 2.03 3.454 2.222 6.517l-1.892.46c-.192-2.479-.727-4.275-1.605-5.389-.85-1.142-2.248-1.713-4.195-1.713-1.591 0-2.88.418-3.867 1.253-.96.808-1.439 2.033-1.439 3.676 0 .892.178 1.755.534 2.591.384.807 1.015 1.657 1.892 2.548l6.006 6.016c1.536 1.532 2.742 3.049 3.62 4.553.877 1.504 1.316 3.078 1.316 4.721 0 2.451-.672 4.303-2.016 5.557-1.343 1.253-3.153 1.879-5.429 1.879z"/><path d="m573.822 135.806h11.518v1.838h-9.255v13.577h7.609v1.755h-7.609v14.872h9.378v1.797h-11.641z"/><path d="m590.012 135.806h8.062c2.742 0 4.648.738 5.717 2.214 1.07 1.476 1.604 3.523 1.604 6.141 0 2.2-.356 4.01-1.069 5.431-.686 1.42-1.961 2.284-3.825 2.59l5.347 17.463h-2.221l-5.183-17.045h-6.211v17.045h-2.221zm7.979 15.039c2.002 0 3.373-.543 4.114-1.629.74-1.114 1.11-2.799 1.11-5.055 0-2.284-.383-3.941-1.151-4.972-.741-1.058-2.112-1.587-4.114-1.587h-5.717v13.243z"/><path d="m608.802 135.806h2.221l6.91 29.87 6.458-29.87h2.18l-7.609 33.839h-2.098z"/><path d="m630.622 135.806h11.517v1.838h-9.255v13.577h7.61v1.755h-7.61v14.872h9.379v1.797h-11.641z"/><path d="m646.811 135.806h8.062c2.742 0 4.648.738 5.718 2.214 1.069 1.476 1.604 3.523 1.604 6.141 0 2.2-.357 4.01-1.07 5.431-.685 1.42-1.96 2.284-3.825 2.59l5.347 17.463h-2.221l-5.183-17.045h-6.211v17.045h-2.221zm7.98 15.039c2.002 0 3.373-.543 4.113-1.629.741-1.114 1.111-2.799 1.111-5.055 0-2.284-.384-3.941-1.152-4.972-.74-1.058-2.111-1.587-4.113-1.587h-5.718v13.243z"/></g></svg>