<svg width="589" height="295" viewBox="0 0 589 295" fill="none" xmlns="http://www.w3.org/2000/svg">
<path d="M307.189 120.183H322.469C327.696 120.183 331.802 120.903 334.789 122.343C337.776 123.73 339.882 125.89 341.109 128.823C342.389 131.703 343.029 135.543 343.029 140.343V163.943C343.029 168.85 342.389 172.823 341.109 175.863C339.882 178.903 337.802 181.197 334.869 182.743C331.936 184.237 327.962 184.983 322.949 184.983H307.189V120.183ZM322.629 176.743C325.242 176.743 327.136 176.29 328.309 175.383C329.482 174.477 330.229 173.223 330.549 171.623C330.869 169.97 331.029 167.543 331.029 164.343V139.543C331.029 136.663 330.842 134.477 330.469 132.983C330.096 131.49 329.296 130.397 328.069 129.703C326.896 128.957 325.029 128.583 322.469 128.583H318.949V176.743H322.629ZM351.72 120.183H367.32C374.147 120.183 379.24 121.49 382.6 124.103C385.96 126.663 387.64 131.09 387.64 137.383C387.64 141.49 387.027 144.85 385.8 147.463C384.627 150.023 382.574 151.89 379.64 153.063L388.68 184.983H376.84L369.08 155.303H363.48V184.983H351.72V120.183ZM367.24 147.943C370.6 147.943 372.974 147.17 374.36 145.623C375.8 144.077 376.52 141.543 376.52 138.023C376.52 134.61 375.88 132.13 374.6 130.583C373.374 129.037 371.134 128.263 367.88 128.263H363.48V147.943H367.24ZM413.932 185.863C407.212 185.863 402.412 184.077 399.532 180.503C396.652 176.877 395.212 171.597 395.212 164.663V140.343C395.212 133.463 396.652 128.263 399.532 124.743C402.412 121.223 407.212 119.463 413.932 119.463C420.598 119.463 425.372 121.223 428.252 124.743C431.132 128.263 432.572 133.463 432.572 140.343V164.663C432.572 171.543 431.105 176.797 428.172 180.423C425.292 184.05 420.545 185.863 413.932 185.863ZM413.932 177.143C416.545 177.143 418.305 176.317 419.212 174.663C420.118 173.01 420.572 170.61 420.572 167.463V137.623C420.572 134.477 420.118 132.103 419.212 130.503C418.358 128.903 416.598 128.103 413.932 128.103C411.265 128.103 409.478 128.93 408.572 130.583C407.665 132.183 407.212 134.53 407.212 137.623V167.463C407.212 170.61 407.665 173.01 408.572 174.663C409.478 176.317 411.265 177.143 413.932 177.143ZM457.65 185.863C451.783 185.863 447.383 184.21 444.45 180.903C441.57 177.597 439.996 172.663 439.73 166.103L449.89 164.103C450.05 168.21 450.69 171.357 451.81 173.543C452.983 175.677 454.796 176.743 457.25 176.743C459.063 176.743 460.396 176.21 461.25 175.143C462.156 174.023 462.61 172.53 462.61 170.663C462.61 168.103 462.023 165.943 460.85 164.183C459.73 162.37 457.943 160.397 455.49 158.263L447.33 151.143C444.823 149.01 442.93 146.717 441.65 144.263C440.423 141.81 439.81 138.877 439.81 135.463C439.81 130.397 441.276 126.477 444.21 123.703C447.196 120.877 451.303 119.463 456.53 119.463C462.13 119.463 466.13 121.063 468.53 124.263C470.983 127.41 472.396 131.677 472.77 137.063L462.61 138.823C462.45 135.303 461.943 132.663 461.09 130.903C460.29 129.09 458.69 128.183 456.29 128.183C454.583 128.183 453.25 128.77 452.29 129.943C451.33 131.063 450.85 132.503 450.85 134.263C450.85 136.343 451.25 138.103 452.05 139.543C452.903 140.93 454.263 142.423 456.13 144.023L464.21 151.143C467.25 153.757 469.623 156.557 471.33 159.543C473.036 162.53 473.89 165.997 473.89 169.943C473.89 173.037 473.196 175.783 471.81 178.183C470.476 180.583 468.583 182.477 466.13 183.863C463.676 185.197 460.85 185.863 457.65 185.863ZM496.556 185.863C490.689 185.863 486.289 184.21 483.356 180.903C480.476 177.597 478.903 172.663 478.636 166.103L488.796 164.103C488.956 168.21 489.596 171.357 490.716 173.543C491.889 175.677 493.703 176.743 496.156 176.743C497.969 176.743 499.303 176.21 500.156 175.143C501.063 174.023 501.516 172.53 501.516 170.663C501.516 168.103 500.929 165.943 499.756 164.183C498.636 162.37 496.849 160.397 494.396 158.263L486.236 151.143C483.729 149.01 481.836 146.717 480.556 144.263C479.329 141.81 478.716 138.877 478.716 135.463C478.716 130.397 480.183 126.477 483.116 123.703C486.103 120.877 490.209 119.463 495.436 119.463C501.036 119.463 505.036 121.063 507.436 124.263C509.889 127.41 511.303 131.677 511.676 137.063L501.516 138.823C501.356 135.303 500.849 132.663 499.996 130.903C499.196 129.09 497.596 128.183 495.196 128.183C493.489 128.183 492.156 128.77 491.196 129.943C490.236 131.063 489.756 132.503 489.756 134.263C489.756 136.343 490.156 138.103 490.956 139.543C491.809 140.93 493.169 142.423 495.036 144.023L503.116 151.143C506.156 153.757 508.529 156.557 510.236 159.543C511.943 162.53 512.796 165.997 512.796 169.943C512.796 173.037 512.103 175.783 510.716 178.183C509.383 180.583 507.489 182.477 505.036 183.863C502.583 185.197 499.756 185.863 496.556 185.863ZM519.767 120.183H546.967V128.503H531.527V147.143H543.687V155.383H531.527V176.903H547.127V184.983H519.767V120.183Z" fill="#34F66B"/>
<path fill-rule="evenodd" clip-rule="evenodd" d="M51.6904 76.6505L55.5132 72.8277L64.2078 81.5224L60.3851 85.3452L51.6904 76.6505ZM63.6873 88.6474L72.382 97.3421L76.2048 93.5194L67.5101 84.8246L63.6873 88.6474ZM79.507 96.8216L75.6843 100.644L84.3793 109.339L88.202 105.517L79.507 96.8216ZM91.5043 108.819L87.6815 112.642L96.3765 121.337L100.199 117.514L91.5043 108.819ZM103.502 120.816L99.6787 124.639L108.374 133.334L112.197 129.511L103.502 120.816ZM115.499 132.813L111.676 136.636L120.371 145.331L124.194 141.508L115.499 132.813ZM127.496 144.811L123.673 148.633L132.368 157.328L136.191 153.506L127.496 144.811ZM139.493 156.808L135.67 160.631L144.365 169.326L148.188 165.503L139.493 156.808ZM151.49 168.805L147.668 172.628L156.363 181.323L160.185 177.5L151.49 168.805ZM163.488 180.802L159.665 184.625L168.36 193.32L172.183 189.497L163.488 180.802ZM175.485 192.8L171.662 196.622L180.357 205.317L184.18 201.495L175.485 192.8ZM187.482 204.797L183.659 208.62L192.354 217.315L196.177 213.492L187.482 204.797ZM199.479 216.794L195.657 220.617L204.352 229.312L208.174 225.489L199.479 216.794ZM211.477 228.791L207.654 232.614L216.349 241.309L220.172 237.486L211.477 228.791ZM223.474 240.789L219.651 244.611L219.651 244.611L223.474 240.789L223.474 240.789Z" fill="#BBBBBB"/>
<path fill-rule="evenodd" clip-rule="evenodd" d="M19.5 159.026L31.7966 159.026L31.7966 155.111L19.5 155.111L19.5 159.026ZM36.4667 155.111L36.4667 159.026L48.7633 159.026L48.7633 155.111L36.4667 155.111ZM53.4333 155.111V159.026L65.7299 159.026V155.111L53.4333 155.111ZM70.4 155.111L70.4 159.026L82.6966 159.026V155.111L70.4 155.111ZM87.3667 155.111V159.026L99.6633 159.026V155.111L87.3667 155.111ZM104.333 155.111V159.026L116.63 159.026L116.63 155.111L104.333 155.111ZM121.3 155.111L121.3 159.026L133.597 159.026V155.111L121.3 155.111ZM138.267 155.111V159.026L150.563 159.026L150.563 155.111L138.267 155.111ZM155.233 155.111V159.026L167.53 159.026V155.111L155.233 155.111ZM172.2 155.111V159.026L184.497 159.026V155.111L172.2 155.111ZM189.167 155.111V159.026L201.463 159.026V155.111L189.167 155.111ZM206.133 155.111V159.026L218.43 159.026V155.111L206.133 155.111ZM223.1 155.111V159.026L235.396 159.026V155.111L223.1 155.111ZM240.066 155.111V159.026L252.362 159.026V155.111L240.066 155.111Z" fill="#BBBBBB"/>
<path d="M157.569 114.924L159.078 113.415L157.147 112.506C150.734 109.486 143.575 107.798 136.037 107.798C108.741 107.798 86.4472 129.924 86.4472 157.232C86.4472 184.539 108.741 206.665 136.037 206.665C163.332 206.665 185.626 184.539 185.626 157.232C185.626 149.756 183.954 142.665 180.965 136.31L180.056 134.379L178.547 135.888L148.466 165.968C144.384 170.051 140.063 171.663 136.177 171.663C132.271 171.663 128.676 170.036 126.052 167.412C123.428 164.787 121.801 161.193 121.801 157.287C121.801 153.401 123.412 149.08 127.495 144.997L157.569 114.924Z" fill="#A4FCBC" stroke="black" stroke-width="3"/>
<path d="M182.693 132.185L181.926 132.952L182.414 133.92C185.943 140.928 187.931 148.845 187.931 157.232C187.931 185.892 164.697 209.126 136.037 209.126C107.376 209.126 84.1421 185.892 84.1421 157.232C84.1421 128.571 107.376 105.337 136.037 105.337C144.423 105.337 152.341 107.325 159.348 110.854L160.316 111.342L161.083 110.575L166.934 104.725L168.337 103.322L166.604 102.355C157.556 97.3041 147.13 94.4266 136.037 94.4266C101.35 94.4266 73.2318 122.545 73.2318 157.232C73.2318 191.918 101.35 220.037 136.037 220.037C170.723 220.037 198.842 191.918 198.842 157.232C198.842 146.138 195.964 135.712 190.914 126.664L189.947 124.931L188.543 126.335L182.693 132.185Z" fill="#34F76B" stroke="black" stroke-width="3"/>
<path d="M182.582 94.866L181.521 93.8053L180.46 94.866L129.043 146.283L130.104 147.344L129.043 146.283C125.83 149.496 124.402 153.08 124.402 156.49C124.402 159.88 125.815 162.974 128.055 165.214C130.294 167.454 133.388 168.867 136.778 168.867C140.188 168.867 143.772 167.438 146.985 164.225L198.402 112.808L199.463 111.747L198.402 110.687L182.582 94.866ZM131.604 157.232C131.604 154.783 133.589 152.799 136.037 152.799C138.485 152.799 140.469 154.783 140.469 157.232C140.469 159.68 138.485 161.664 136.037 161.664C133.589 161.664 131.604 159.68 131.604 157.232Z" fill="#34F76B" stroke="black" stroke-width="3"/>
<path d="M196.886 105.502L197.946 106.563L199.007 105.502L205.103 99.4069C213.621 101.622 223.062 99.3937 229.74 92.7156C239.766 82.6895 239.766 66.4341 229.74 56.4081C220.67 47.3377 206.504 46.4738 196.46 53.8133C195.401 54.5875 194.388 55.4526 193.433 56.4081L192.372 57.4688L193.433 58.5294L201.567 66.6636L202.627 67.7242L203.688 66.6636C208.05 62.3015 215.123 62.3015 219.485 66.6636C223.847 71.0257 223.847 78.098 219.485 82.4601C215.341 86.6036 208.751 86.8114 204.363 83.0828L203.714 82.4338L202.662 81.382L201.602 82.4249L188.667 95.144L187.588 96.2046L188.658 97.2742L196.886 105.502Z" fill="#34F76B" stroke="black" stroke-width="3"/>
</svg>
