<svg width="25" height="26" viewBox="0 0 25 26" fill="none" xmlns="http://www.w3.org/2000/svg">
<g clip-path="url(#clip0)">
<path d="M5.98123 16.5242C6.79894 17.9407 7.93871 19.1448 9.30827 20.0389C10.6778 20.933 12.2387 21.492 13.8645 21.6707C15.4903 21.8494 17.1353 21.6428 18.6664 21.0675C20.1974 20.4923 21.5715 19.5646 22.6774 18.3595C20.5134 18.8414 18.2521 18.6203 16.2225 17.7284C14.1928 16.8364 12.5006 15.3202 11.3921 13.4002C10.2837 11.4802 9.81663 9.25668 10.059 7.05297C10.3014 4.84927 11.2406 2.78038 12.7399 1.14725C11.1434 1.50244 9.65289 2.22858 8.38916 3.26691C7.12543 4.30523 6.12397 5.62654 5.46584 7.12387C4.80772 8.6212 4.51143 10.2525 4.60097 11.8856C4.69051 13.5187 5.16336 15.1078 5.98123 16.5242Z" fill="black"/>
</g>
<defs>
<clipPath id="clip0">
<rect width="25" height="25" fill="white" transform="translate(0 0.638794)"/>
</clipPath>
</defs>
</svg>
