<svg width="25" height="26" viewBox="0 0 25 26" fill="none" xmlns="http://www.w3.org/2000/svg">
<path d="M3.69788 19.9513L5.16663 21.4201L7.04163 19.5555L5.56246 18.0763L3.69788 19.9513ZM11.4583 24.0242C11.7916 24.0242 13.5416 24.0242 13.5416 24.0242V20.9513H11.4583V24.0242ZM12.5 6.36798C10.8424 6.36798 9.25264 7.02646 8.08054 8.19856C6.90844 9.37067 6.24996 10.9604 6.24996 12.618C6.24996 14.2756 6.90844 15.8653 8.08054 17.0374C9.25264 18.2095 10.8424 18.868 12.5 18.868C14.1576 18.868 15.7473 18.2095 16.9194 17.0374C18.0915 15.8653 18.75 14.2756 18.75 12.618C18.75 9.15965 15.9479 6.36798 12.5 6.36798ZM20.8333 13.6596H23.9583V11.5763H20.8333V13.6596ZM17.9583 19.5555L19.8333 21.4201L21.302 19.9513L19.4375 18.0763L17.9583 19.5555ZM21.302 5.28465L19.8333 3.8159L17.9583 5.68048L19.4375 7.15965L21.302 5.28465ZM13.5416 1.21173H11.4583V4.28465H13.5416V1.21173ZM4.16663 11.5763H1.04163V13.6596H4.16663V11.5763ZM7.04163 5.68048L5.16663 3.8159L3.69788 5.28465L5.56246 7.15965L7.04163 5.68048Z" fill="black"/>
</svg>
