<svg width="26" height="26" viewBox="0 0 26 26" fill="none" xmlns="http://www.w3.org/2000/svg">
<path d="M12.688 0.960083C11.0465 0.960083 9.42101 1.28341 7.90444 1.91159C6.38788 2.53977 5.00989 3.46052 3.84915 4.62125C1.50495 6.96545 0.187988 10.1449 0.187988 13.4601C0.187988 18.9851 3.77549 23.6726 8.73799 25.3351C9.36299 25.4351 9.56299 25.0476 9.56299 24.7101C9.56299 24.4226 9.56299 23.6351 9.56299 22.5976C6.10049 23.3476 5.36299 20.9226 5.36299 20.9226C4.78799 19.4726 3.97549 19.0851 3.97549 19.0851C2.83799 18.3101 4.06299 18.3351 4.06299 18.3351C5.31299 18.4226 5.97549 19.6226 5.97549 19.6226C7.06299 21.5226 8.90049 20.9601 9.61299 20.6601C9.72549 19.8476 10.0505 19.2976 10.4005 18.9851C7.62549 18.6726 4.71299 17.5976 4.71299 12.8351C4.71299 11.4476 5.18799 10.3351 6.00049 9.44758C5.87549 9.13508 5.43799 7.83508 6.12549 6.14758C6.12549 6.14758 7.17549 5.81008 9.56299 7.42258C10.5505 7.14758 11.6255 7.01008 12.688 7.01008C13.7505 7.01008 14.8255 7.14758 15.813 7.42258C18.2005 5.81008 19.2505 6.14758 19.2505 6.14758C19.938 7.83508 19.5005 9.13508 19.3755 9.44758C20.188 10.3351 20.663 11.4476 20.663 12.8351C20.663 17.6101 17.738 18.6601 14.9505 18.9726C15.4005 19.3601 15.813 20.1226 15.813 21.2851C15.813 22.9601 15.813 24.3101 15.813 24.7101C15.813 25.0476 16.013 25.4476 16.6505 25.3351C21.613 23.6601 25.188 18.9851 25.188 13.4601C25.188 11.8186 24.8647 10.1931 24.2365 8.67654C23.6083 7.15997 22.6876 5.78198 21.5268 4.62125C20.3661 3.46052 18.9881 2.53977 17.4715 1.91159C15.955 1.28341 14.3295 0.960083 12.688 0.960083Z" fill="#8800C4"/>
</svg>
