<svg width="72" height="72" viewBox="0 0 72 72" fill="none" xmlns="http://www.w3.org/2000/svg">
<path fill-rule="evenodd" clip-rule="evenodd" d="M36 15.9975C35 15.9975 34 16.3775 33.18 17.1775L17.18 33.1775C15.6 34.7375 15.6 37.2575 17.18 38.8175L33.18 54.8175C34.74 56.3975 37.26 56.3975 38.82 54.8175L54.82 38.8175C56.4 37.2575 56.4 34.7375 54.82 33.1775L38.82 17.1775C38 16.3775 37 15.9975 36 15.9975ZM36 25.8975C41.4 26.1175 43.74 31.5575 40.56 35.6175C39.72 36.6175 38.38 37.2775 37.7 38.1375C37 38.9975 37 39.9975 37 40.9975H34C34 39.2975 34 37.8775 34.7 36.8775C35.36 35.8775 36.7 35.2775 37.54 34.6175C40 32.3575 39.36 29.1775 36 28.9175C34.36 28.9175 33 30.2575 33 31.9375H30C30 28.5975 32.7 25.8975 36 25.8975ZM34 42.9975H37V45.9975H34V42.9975Z" fill="black"/>
</svg>
