<svg width="43" height="23" viewBox="0 0 43 23" fill="none" xmlns="http://www.w3.org/2000/svg">
<path fill-rule="evenodd" clip-rule="evenodd" d="M15.529 22.1572C13.879 22.1572 12.616 21.6887 11.7401 20.7517C10.8642 19.8146 10.4262 18.4906 10.4262 16.7794V5.535C10.4262 3.82389 10.8642 2.49982 11.7401 1.56278C12.616 0.625745 13.879 0.157227 15.529 0.157227C17.179 0.157227 18.4419 0.625745 19.3179 1.56278C20.1938 2.49982 20.6318 3.82389 20.6318 5.535V16.7794C20.6318 18.4906 20.1938 19.8146 19.3179 20.7517C18.4419 21.6887 17.179 22.1572 15.529 22.1572ZM15.529 19.1017C16.6901 19.1017 17.2706 18.3989 17.2706 16.9933V5.32112C17.2706 3.91556 16.6901 3.21278 15.529 3.21278C14.3679 3.21278 13.7873 3.91556 13.7873 5.32112V16.9933C13.7873 18.3989 14.3679 19.1017 15.529 19.1017ZM2.55101 21.9739C1.9399 21.9739 0.99268 21.9739 0.99268 21.9739V18.9183C0.99268 18.9183 1.68527 18.9183 2.09268 18.9183C2.7649 18.9183 3.26398 18.7554 3.5899 18.4294C3.91583 18.0832 4.07879 17.5637 4.07879 16.8711V8.52894L7.4399 5.16783V16.7794C7.4399 18.5313 7.03249 19.835 6.21768 20.6906C5.42323 21.5461 4.20101 21.9739 2.55101 21.9739ZM7.4399 2.06194V0.462782H4.07879V5.42305L7.4399 2.06194ZM24.9974 3.51834H21.4836V0.462782H31.8724V3.51834H28.3585V21.8517H24.9974V3.51834ZM34.2958 0.462782H38.8486L42.3319 21.8517H38.9708L38.3597 17.6044V17.6656H34.5403L33.9292 21.8517H30.8125L34.2958 0.462782ZM37.9625 14.7628L36.4653 4.19056H36.4042L34.9375 14.7628H37.9625Z" fill="#0B3C8C"/>
</svg>
